<?xml version="1.0" encoding="utf-8" standalone="no"?>
<!DOCTYPE svg PUBLIC "-//W3C//DTD SVG 1.1//EN"
  "http://www.w3.org/Graphics/SVG/1.1/DTD/svg11.dtd">
<svg xmlns:xlink="http://www.w3.org/1999/xlink" width="1000.350937pt" height="351.790937pt" viewBox="0 0 1000.350937 351.790937" xmlns="http://www.w3.org/2000/svg" version="1.1">
 <metadata>
  <rdf:RDF xmlns:dc="http://purl.org/dc/elements/1.1/" xmlns:cc="http://creativecommons.org/ns#" xmlns:rdf="http://www.w3.org/1999/02/22-rdf-syntax-ns#">
   <cc:Work>
    <dc:type rdf:resource="http://purl.org/dc/dcmitype/StillImage"/>
    <dc:date>2026-09-10T22:51:31.169129</dc:date>
    <dc:format>image/svg+xml</dc:format>
    <dc:creator>
     <cc:Agent>
      <dc:title>Matplotlib v3.10.0, https://matplotlib.org/</dc:title>
     </cc:Agent>
    </dc:creator>
   </cc:Work>
  </rdf:RDF>
 </metadata>
 <defs>
  <style type="text/css">*{stroke-linejoin: round; stroke-linecap: butt}</style>
 </defs>
 <g id="figure_1">
  <g id="patch_1">
   <path d="M 0 351.790937 
L 1000.350937 351.790937 
L 1000.350937 0 
L 0 0 
z
" style="fill: #ffffff"/>
  </g>
  <g id="axes_1">
   <g id="patch_2">
    <path d="M 42.692188 316.208125 
L 494.865938 316.208125 
L 494.865938 23.090625 
L 42.692188 23.090625 
z
" style="fill: #ffffff"/>
   </g>
   <g id="matplotlib.axis_1">
    <g id="xtick_1">
     <g id="line2d_1">
      <path d="M 63.24554 316.208125 
L 63.24554 23.090625 
" clip-path="url(#pbd9baa469c)" style="fill: none; stroke: #b0b0b0; stroke-opacity: 0.3; stroke-width: 0.8; stroke-linecap: square"/>
     </g>
     <g id="line2d_2">
      <defs>
       <path id="m9866f1197e" d="M 0 0 
L 0 3.5 
" style="stroke: #000000; stroke-width: 0.8"/>
      </defs>
      <g>
       <use xlink:href="#m9866f1197e" x="63.24554" y="316.208125" style="stroke: #000000; stroke-width: 0.8"/>
      </g>
     </g>
     <g id="text_1">
      <!-- 0 -->
      <g transform="translate(60.74554 330.083125) scale(0.1 -0.1)">
       <defs>
        <path id="SimHei-30" d="M 225 2537 
Q 250 3200 412 3587 
Q 575 3975 875 4225 
Q 1175 4475 1612 4475 
Q 2050 4475 2375 4112 
Q 2700 3750 2800 3200 
Q 2900 2650 2862 1937 
Q 2825 1225 2612 775 
Q 2400 325 1975 150 
Q 1550 -25 1125 187 
Q 700 400 525 750 
Q 350 1100 275 1487 
Q 200 1875 225 2537 
z
M 750 2687 
Q 675 2000 800 1462 
Q 925 925 1212 700 
Q 1500 475 1800 612 
Q 2100 750 2237 1162 
Q 2375 1575 2375 2062 
Q 2375 2550 2337 2950 
Q 2300 3350 2112 3675 
Q 1925 4000 1612 4012 
Q 1300 4025 1062 3700 
Q 825 3375 750 2687 
z
" transform="scale(0.015625)"/>
       </defs>
       <use xlink:href="#SimHei-30"/>
      </g>
     </g>
    </g>
    <g id="xtick_2">
     <g id="line2d_3">
      <path d="M 147.711371 316.208125 
L 147.711371 23.090625 
" clip-path="url(#pbd9baa469c)" style="fill: none; stroke: #b0b0b0; stroke-opacity: 0.3; stroke-width: 0.8; stroke-linecap: square"/>
     </g>
     <g id="line2d_4">
      <g>
       <use xlink:href="#m9866f1197e" x="147.711371" y="316.208125" style="stroke: #000000; stroke-width: 0.8"/>
      </g>
     </g>
     <g id="text_2">
      <!-- 10 -->
      <g transform="translate(142.711371 330.083125) scale(0.1 -0.1)">
       <defs>
        <path id="SimHei-31" d="M 1400 3600 
Q 1075 3275 575 2975 
L 575 3450 
Q 1200 3875 1600 4450 
L 1900 4450 
L 1900 150 
L 1400 150 
L 1400 3600 
z
" transform="scale(0.015625)"/>
       </defs>
       <use xlink:href="#SimHei-31"/>
       <use xlink:href="#SimHei-30" transform="translate(50 0)"/>
      </g>
     </g>
    </g>
    <g id="xtick_3">
     <g id="line2d_5">
      <path d="M 232.177202 316.208125 
L 232.177202 23.090625 
" clip-path="url(#pbd9baa469c)" style="fill: none; stroke: #b0b0b0; stroke-opacity: 0.3; stroke-width: 0.8; stroke-linecap: square"/>
     </g>
     <g id="line2d_6">
      <g>
       <use xlink:href="#m9866f1197e" x="232.177202" y="316.208125" style="stroke: #000000; stroke-width: 0.8"/>
      </g>
     </g>
     <g id="text_3">
      <!-- 20 -->
      <g transform="translate(227.177202 330.083125) scale(0.1 -0.1)">
       <defs>
        <path id="SimHei-32" d="M 300 250 
Q 325 625 650 925 
Q 975 1225 1475 1862 
Q 1975 2500 2125 2850 
Q 2275 3200 2237 3450 
Q 2200 3700 2000 3862 
Q 1800 4025 1537 4000 
Q 1275 3975 1037 3800 
Q 800 3625 675 3275 
L 200 3350 
Q 400 3925 712 4187 
Q 1025 4450 1450 4475 
Q 1700 4500 1900 4462 
Q 2100 4425 2312 4287 
Q 2525 4150 2662 3875 
Q 2800 3600 2762 3212 
Q 2725 2825 2375 2287 
Q 2025 1750 1025 600 
L 2825 600 
L 2825 150 
L 300 150 
L 300 250 
z
" transform="scale(0.015625)"/>
       </defs>
       <use xlink:href="#SimHei-32"/>
       <use xlink:href="#SimHei-30" transform="translate(50 0)"/>
      </g>
     </g>
    </g>
    <g id="xtick_4">
     <g id="line2d_7">
      <path d="M 316.643034 316.208125 
L 316.643034 23.090625 
" clip-path="url(#pbd9baa469c)" style="fill: none; stroke: #b0b0b0; stroke-opacity: 0.3; stroke-width: 0.8; stroke-linecap: square"/>
     </g>
     <g id="line2d_8">
      <g>
       <use xlink:href="#m9866f1197e" x="316.643034" y="316.208125" style="stroke: #000000; stroke-width: 0.8"/>
      </g>
     </g>
     <g id="text_4">
      <!-- 30 -->
      <g transform="translate(311.643034 330.083125) scale(0.1 -0.1)">
       <defs>
        <path id="SimHei-33" d="M 250 1225 
L 700 1300 
Q 800 975 1025 762 
Q 1250 550 1587 562 
Q 1925 575 2125 837 
Q 2325 1100 2300 1437 
Q 2275 1775 2037 1962 
Q 1800 2150 1275 2225 
L 1275 2550 
Q 1800 2600 2037 2825 
Q 2275 3050 2250 3412 
Q 2225 3775 1925 3937 
Q 1625 4100 1287 3975 
Q 950 3850 750 3275 
L 300 3350 
Q 450 3800 712 4100 
Q 975 4400 1425 4450 
Q 1875 4500 2212 4337 
Q 2550 4175 2687 3837 
Q 2825 3500 2725 3100 
Q 2625 2700 2150 2400 
Q 2500 2250 2687 1950 
Q 2875 1650 2812 1162 
Q 2750 675 2375 375 
Q 2000 75 1525 87 
Q 1050 100 700 387 
Q 350 675 250 1225 
z
" transform="scale(0.015625)"/>
       </defs>
       <use xlink:href="#SimHei-33"/>
       <use xlink:href="#SimHei-30" transform="translate(50 0)"/>
      </g>
     </g>
    </g>
    <g id="xtick_5">
     <g id="line2d_9">
      <path d="M 401.108865 316.208125 
L 401.108865 23.090625 
" clip-path="url(#pbd9baa469c)" style="fill: none; stroke: #b0b0b0; stroke-opacity: 0.3; stroke-width: 0.8; stroke-linecap: square"/>
     </g>
     <g id="line2d_10">
      <g>
       <use xlink:href="#m9866f1197e" x="401.108865" y="316.208125" style="stroke: #000000; stroke-width: 0.8"/>
      </g>
     </g>
     <g id="text_5">
      <!-- 40 -->
      <g transform="translate(396.108865 330.083125) scale(0.1 -0.1)">
       <defs>
        <path id="SimHei-34" d="M 2000 1100 
L 75 1100 
L 75 1525 
L 2100 4450 
L 2475 4450 
L 2475 1525 
L 3075 1525 
L 3075 1100 
L 2475 1100 
L 2475 150 
L 2000 150 
L 2000 1100 
z
M 2000 1525 
L 2000 3500 
L 600 1525 
L 2000 1525 
z
" transform="scale(0.015625)"/>
       </defs>
       <use xlink:href="#SimHei-34"/>
       <use xlink:href="#SimHei-30" transform="translate(50 0)"/>
      </g>
     </g>
    </g>
    <g id="xtick_6">
     <g id="line2d_11">
      <path d="M 485.574696 316.208125 
L 485.574696 23.090625 
" clip-path="url(#pbd9baa469c)" style="fill: none; stroke: #b0b0b0; stroke-opacity: 0.3; stroke-width: 0.8; stroke-linecap: square"/>
     </g>
     <g id="line2d_12">
      <g>
       <use xlink:href="#m9866f1197e" x="485.574696" y="316.208125" style="stroke: #000000; stroke-width: 0.8"/>
      </g>
     </g>
     <g id="text_6">
      <!-- 50 -->
      <g transform="translate(480.574696 330.083125) scale(0.1 -0.1)">
       <defs>
        <path id="SimHei-35" d="M 550 1325 
Q 725 650 1150 575 
Q 1575 500 1837 662 
Q 2100 825 2212 1087 
Q 2325 1350 2312 1675 
Q 2300 2000 2137 2225 
Q 1975 2450 1725 2525 
Q 1475 2600 1162 2525 
Q 850 2450 650 2175 
L 225 2225 
Q 275 2375 700 4375 
L 2675 4375 
L 2675 3925 
L 1075 3925 
Q 950 3250 825 2850 
Q 1200 3025 1525 3012 
Q 1850 3000 2150 2862 
Q 2450 2725 2587 2487 
Q 2725 2250 2787 2012 
Q 2850 1775 2837 1500 
Q 2825 1225 2725 937 
Q 2625 650 2425 462 
Q 2225 275 1937 162 
Q 1650 50 1275 75 
Q 900 100 562 350 
Q 225 600 100 1200 
L 550 1325 
z
" transform="scale(0.015625)"/>
       </defs>
       <use xlink:href="#SimHei-35"/>
       <use xlink:href="#SimHei-30" transform="translate(50 0)"/>
      </g>
     </g>
    </g>
    <g id="text_7">
     <!-- 时间 (h) -->
     <g transform="translate(248.779063 343.340937) scale(0.1 -0.1)">
      <defs>
       <path id="SimHei-65f6" d="M 2525 4575 
Q 2500 3675 2500 2400 
Q 2500 1125 2525 400 
L 2000 400 
L 2000 875 
L 1000 875 
L 1000 50 
L 475 50 
Q 500 1200 500 2350 
Q 500 3525 475 4575 
L 2525 4575 
z
M 4875 3825 
Q 4875 4575 4850 5225 
L 5400 5225 
Q 5375 4575 5375 3825 
Q 5750 3825 6175 3850 
L 6175 3375 
Q 5750 3400 5375 3400 
L 5375 50 
Q 5375 -325 5075 -425 
Q 4775 -525 4300 -575 
Q 4300 -275 4025 0 
Q 4500 -50 4687 -25 
Q 4875 0 4875 300 
L 4875 3400 
Q 3625 3400 2775 3375 
L 2775 3850 
Q 3575 3825 4875 3825 
z
M 2000 1300 
L 2000 2550 
L 1000 2550 
L 1000 1300 
L 2000 1300 
z
M 2000 2975 
L 2000 4150 
L 1000 4150 
L 1000 2975 
L 2000 2975 
z
M 3550 2725 
Q 3875 2200 4175 1600 
Q 3925 1525 3650 1375 
Q 3450 1975 3075 2500 
Q 3300 2600 3550 2725 
z
" transform="scale(0.015625)"/>
       <path id="SimHei-95f4" d="M 4450 3550 
Q 4425 3075 4425 2725 
L 4425 1400 
Q 4425 1075 4450 625 
L 1925 625 
Q 1950 1075 1950 1425 
L 1950 2725 
Q 1950 3075 1925 3550 
L 4450 3550 
z
M 5800 4875 
Q 5775 4400 5775 3925 
L 5775 250 
Q 5800 -325 5462 -450 
Q 5125 -575 4725 -625 
Q 4700 -325 4525 -25 
Q 5000 -50 5137 25 
Q 5275 100 5275 350 
L 5275 4450 
L 3775 4450 
Q 3175 4450 2650 4425 
L 2650 4900 
Q 3175 4875 3775 4875 
L 5800 4875 
z
M 550 -525 
Q 600 -25 600 525 
L 600 3150 
Q 600 3675 550 4025 
L 1125 4025 
Q 1100 3650 1100 3300 
L 1100 500 
Q 1100 0 1125 -525 
L 550 -525 
z
M 3950 1025 
L 3950 1950 
L 2425 1950 
L 2425 1025 
L 3950 1025 
z
M 3950 2350 
L 3950 3150 
L 2425 3150 
L 2425 2350 
L 3950 2350 
z
M 1525 5300 
Q 1750 5000 2225 4350 
Q 1950 4225 1700 4075 
Q 1450 4575 1075 5025 
Q 1350 5225 1525 5300 
z
" transform="scale(0.015625)"/>
       <path id="SimHei-20" transform="scale(0.015625)"/>
       <path id="SimHei-28" d="M 2975 -200 
L 2700 -475 
Q 2075 125 1762 775 
Q 1450 1425 1450 2250 
Q 1450 3075 1762 3725 
Q 2075 4375 2700 5000 
L 2975 4725 
Q 2400 4175 2112 3587 
Q 1825 3000 1825 2250 
Q 1825 1500 2112 912 
Q 2400 325 2975 -200 
z
" transform="scale(0.015625)"/>
       <path id="SimHei-68" d="M 2800 125 
L 2300 125 
L 2300 1925 
Q 2300 2225 2150 2400 
Q 2000 2575 1750 2575 
Q 1425 2575 1137 2237 
Q 850 1900 850 1400 
L 850 125 
L 350 125 
L 350 4400 
L 850 4400 
L 850 2400 
Q 1050 2675 1287 2825 
Q 1525 2975 1900 2975 
Q 2350 2975 2575 2725 
Q 2800 2475 2800 2100 
L 2800 125 
z
" transform="scale(0.015625)"/>
       <path id="SimHei-29" d="M 1675 2250 
Q 1675 1425 1362 775 
Q 1050 125 425 -475 
L 150 -200 
Q 725 325 1012 912 
Q 1300 1500 1300 2250 
Q 1300 3000 1012 3587 
Q 725 4175 150 4725 
L 425 5000 
Q 1050 4375 1362 3725 
Q 1675 3075 1675 2250 
z
" transform="scale(0.015625)"/>
      </defs>
      <use xlink:href="#SimHei-65f6"/>
      <use xlink:href="#SimHei-95f4" transform="translate(100 0)"/>
      <use xlink:href="#SimHei-20" transform="translate(200 0)"/>
      <use xlink:href="#SimHei-28" transform="translate(250 0)"/>
      <use xlink:href="#SimHei-68" transform="translate(300 0)"/>
      <use xlink:href="#SimHei-29" transform="translate(350 0)"/>
     </g>
    </g>
   </g>
   <g id="matplotlib.axis_2">
    <g id="ytick_1">
     <g id="line2d_13">
      <path d="M 42.692188 312.129165 
L 494.865938 312.129165 
" clip-path="url(#pbd9baa469c)" style="fill: none; stroke: #b0b0b0; stroke-opacity: 0.3; stroke-width: 0.8; stroke-linecap: square"/>
     </g>
     <g id="line2d_14">
      <defs>
       <path id="mfa6d082f85" d="M 0 0 
L -3.5 0 
" style="stroke: #000000; stroke-width: 0.8"/>
      </defs>
      <g>
       <use xlink:href="#mfa6d082f85" x="42.692188" y="312.129165" style="stroke: #000000; stroke-width: 0.8"/>
      </g>
     </g>
     <g id="text_8">
      <!-- 0.0 -->
      <g transform="translate(20.692188 315.566665) scale(0.1 -0.1)">
       <defs>
        <path id="SimHei-2e" d="M 1075 125 
L 500 125 
L 500 675 
L 1075 675 
L 1075 125 
z
" transform="scale(0.015625)"/>
       </defs>
       <use xlink:href="#SimHei-30"/>
       <use xlink:href="#SimHei-2e" transform="translate(50 0)"/>
       <use xlink:href="#SimHei-30" transform="translate(100 0)"/>
      </g>
     </g>
    </g>
    <g id="ytick_2">
     <g id="line2d_15">
      <path d="M 42.692188 258.067397 
L 494.865938 258.067397 
" clip-path="url(#pbd9baa469c)" style="fill: none; stroke: #b0b0b0; stroke-opacity: 0.3; stroke-width: 0.8; stroke-linecap: square"/>
     </g>
     <g id="line2d_16">
      <g>
       <use xlink:href="#mfa6d082f85" x="42.692188" y="258.067397" style="stroke: #000000; stroke-width: 0.8"/>
      </g>
     </g>
     <g id="text_9">
      <!-- 0.5 -->
      <g transform="translate(20.692188 261.504897) scale(0.1 -0.1)">
       <use xlink:href="#SimHei-30"/>
       <use xlink:href="#SimHei-2e" transform="translate(50 0)"/>
       <use xlink:href="#SimHei-35" transform="translate(100 0)"/>
      </g>
     </g>
    </g>
    <g id="ytick_3">
     <g id="line2d_17">
      <path d="M 42.692188 204.005629 
L 494.865938 204.005629 
" clip-path="url(#pbd9baa469c)" style="fill: none; stroke: #b0b0b0; stroke-opacity: 0.3; stroke-width: 0.8; stroke-linecap: square"/>
     </g>
     <g id="line2d_18">
      <g>
       <use xlink:href="#mfa6d082f85" x="42.692188" y="204.005629" style="stroke: #000000; stroke-width: 0.8"/>
      </g>
     </g>
     <g id="text_10">
      <!-- 1.0 -->
      <g transform="translate(20.692188 207.443129) scale(0.1 -0.1)">
       <use xlink:href="#SimHei-31"/>
       <use xlink:href="#SimHei-2e" transform="translate(50 0)"/>
       <use xlink:href="#SimHei-30" transform="translate(100 0)"/>
      </g>
     </g>
    </g>
    <g id="ytick_4">
     <g id="line2d_19">
      <path d="M 42.692188 149.943861 
L 494.865938 149.943861 
" clip-path="url(#pbd9baa469c)" style="fill: none; stroke: #b0b0b0; stroke-opacity: 0.3; stroke-width: 0.8; stroke-linecap: square"/>
     </g>
     <g id="line2d_20">
      <g>
       <use xlink:href="#mfa6d082f85" x="42.692188" y="149.943861" style="stroke: #000000; stroke-width: 0.8"/>
      </g>
     </g>
     <g id="text_11">
      <!-- 1.5 -->
      <g transform="translate(20.692188 153.381361) scale(0.1 -0.1)">
       <use xlink:href="#SimHei-31"/>
       <use xlink:href="#SimHei-2e" transform="translate(50 0)"/>
       <use xlink:href="#SimHei-35" transform="translate(100 0)"/>
      </g>
     </g>
    </g>
    <g id="ytick_5">
     <g id="line2d_21">
      <path d="M 42.692188 95.882093 
L 494.865938 95.882093 
" clip-path="url(#pbd9baa469c)" style="fill: none; stroke: #b0b0b0; stroke-opacity: 0.3; stroke-width: 0.8; stroke-linecap: square"/>
     </g>
     <g id="line2d_22">
      <g>
       <use xlink:href="#mfa6d082f85" x="42.692188" y="95.882093" style="stroke: #000000; stroke-width: 0.8"/>
      </g>
     </g>
     <g id="text_12">
      <!-- 2.0 -->
      <g transform="translate(20.692188 99.319593) scale(0.1 -0.1)">
       <use xlink:href="#SimHei-32"/>
       <use xlink:href="#SimHei-2e" transform="translate(50 0)"/>
       <use xlink:href="#SimHei-30" transform="translate(100 0)"/>
      </g>
     </g>
    </g>
    <g id="ytick_6">
     <g id="line2d_23">
      <path d="M 42.692188 41.820325 
L 494.865938 41.820325 
" clip-path="url(#pbd9baa469c)" style="fill: none; stroke: #b0b0b0; stroke-opacity: 0.3; stroke-width: 0.8; stroke-linecap: square"/>
     </g>
     <g id="line2d_24">
      <g>
       <use xlink:href="#mfa6d082f85" x="42.692188" y="41.820325" style="stroke: #000000; stroke-width: 0.8"/>
      </g>
     </g>
     <g id="text_13">
      <!-- 2.5 -->
      <g transform="translate(20.692188 45.257825) scale(0.1 -0.1)">
       <use xlink:href="#SimHei-32"/>
       <use xlink:href="#SimHei-2e" transform="translate(50 0)"/>
       <use xlink:href="#SimHei-35" transform="translate(100 0)"/>
      </g>
     </g>
    </g>
    <g id="text_14">
     <!-- 含水率 (kg/kg) -->
     <g transform="translate(15.442188 204.649375) rotate(-90) scale(0.1 -0.1)">
      <defs>
       <path id="SimHei-542b" d="M 4525 -575 
L 4525 -200 
L 1850 -200 
L 1850 -625 
L 1325 -625 
Q 1350 -275 1350 275 
Q 1350 850 1325 1450 
L 5050 1450 
Q 5025 1175 5025 425 
Q 5025 -300 5050 -575 
L 4525 -575 
z
M 3350 4850 
Q 3625 4525 4325 4062 
Q 5025 3600 6150 3300 
Q 5850 3075 5750 2750 
Q 5050 3025 4337 3462 
Q 3625 3900 3125 4500 
Q 2500 3800 1912 3387 
Q 1325 2975 625 2650 
Q 550 2850 275 3100 
Q 1100 3325 1862 3925 
Q 2625 4525 2975 5275 
Q 3325 5150 3525 5050 
L 3350 4850 
z
M 4525 200 
L 4525 1050 
L 1850 1050 
L 1850 200 
L 4525 200 
z
M 4775 2875 
Q 4525 2600 4200 2200 
Q 3875 1800 3600 1500 
Q 3425 1675 3250 1750 
Q 3525 2025 3875 2500 
L 1975 2500 
Q 1750 2500 1350 2475 
L 1350 2900 
Q 1750 2875 1975 2875 
L 4775 2875 
z
M 3050 3925 
Q 3425 3400 3475 3225 
Q 3375 3200 3050 3025 
Q 2850 3475 2675 3700 
Q 2925 3800 3050 3925 
z
" transform="scale(0.015625)"/>
       <path id="SimHei-6c34" d="M 3450 5175 
Q 3450 4800 3437 4500 
Q 3425 4200 3487 3762 
Q 3550 3325 3950 2725 
Q 4975 3575 5175 4050 
Q 5450 3800 5675 3575 
Q 5350 3350 5037 3075 
Q 4725 2800 4175 2325 
Q 4375 1900 4900 1375 
Q 5425 850 6175 625 
Q 5750 425 5675 125 
Q 4725 700 4212 1400 
Q 3700 2100 3425 2800 
L 3425 25 
Q 3450 -325 3162 -475 
Q 2875 -625 2400 -675 
Q 2375 -400 2175 -75 
Q 2575 -150 2750 -100 
Q 2925 -50 2925 225 
L 2925 4175 
Q 2925 4800 2875 5175 
L 3450 5175 
z
M 2550 3575 
Q 2425 2900 2237 2362 
Q 2050 1825 1737 1300 
Q 1425 775 750 100 
Q 575 325 225 450 
Q 925 950 1337 1600 
Q 1750 2250 1950 3125 
L 1275 3125 
Q 900 3125 425 3075 
L 425 3600 
Q 875 3575 1250 3575 
L 2550 3575 
z
" transform="scale(0.015625)"/>
       <path id="SimHei-7387" d="M 3325 5150 
Q 3425 4900 3550 4525 
L 4800 4525 
Q 5250 4525 5800 4550 
L 5800 4125 
Q 5250 4175 4775 4175 
L 2800 4175 
Q 2975 4050 3300 3900 
Q 3075 3750 2875 3537 
Q 2675 3325 2475 3125 
L 3275 3125 
Q 3575 3425 3775 3775 
Q 4000 3600 4275 3425 
Q 3950 3250 3600 2875 
Q 3250 2500 2625 2000 
L 3850 2100 
Q 3725 2250 3600 2425 
Q 3750 2475 4000 2650 
Q 4250 2350 4700 1700 
Q 4475 1625 4225 1450 
Q 4175 1600 4025 1775 
Q 3700 1750 3425 1750 
L 3425 1050 
L 5150 1050 
Q 5675 1050 6100 1075 
L 6100 650 
Q 5700 675 5125 675 
L 3425 675 
L 3425 175 
Q 3425 -300 3450 -625 
L 2900 -625 
Q 2925 -300 2925 175 
L 2925 675 
L 1325 675 
Q 825 675 325 650 
L 325 1075 
Q 825 1050 1350 1050 
L 2925 1050 
L 2925 1700 
Q 2700 1675 2475 1637 
Q 2250 1600 2025 1525 
Q 1950 1775 1850 2000 
Q 2075 2025 2325 2200 
Q 2575 2375 2975 2800 
Q 2300 2725 2025 2625 
Q 1975 2875 1850 3175 
Q 2075 3175 2325 3487 
Q 2575 3800 2750 4175 
L 1700 4175 
Q 1150 4175 650 4125 
L 650 4550 
Q 1150 4525 1550 4525 
L 2975 4525 
Q 2900 4825 2800 5025 
Q 3025 5075 3325 5150 
z
M 1625 2575 
Q 1725 2400 1825 2200 
Q 1575 2050 1325 1862 
Q 1075 1675 800 1425 
Q 625 1675 475 1875 
Q 800 2025 1100 2212 
Q 1400 2400 1625 2575 
z
M 4850 2650 
Q 5125 2475 5337 2337 
Q 5550 2200 5875 1950 
Q 5675 1800 5500 1600 
Q 5300 1775 5062 1975 
Q 4825 2175 4575 2325 
Q 4725 2475 4850 2650 
z
M 5725 3525 
Q 5550 3450 5300 3262 
Q 5050 3075 4800 2825 
Q 4625 3050 4475 3175 
Q 4700 3325 4875 3487 
Q 5050 3650 5300 3925 
Q 5525 3700 5725 3525 
z
M 1050 3850 
Q 1425 3600 1775 3275 
Q 1575 3100 1425 2925 
Q 1075 3300 675 3525 
Q 875 3700 1050 3850 
z
" transform="scale(0.015625)"/>
       <path id="SimHei-6b" d="M 2925 125 
L 2350 125 
L 1450 1650 
L 875 1100 
L 875 125 
L 375 125 
L 375 4400 
L 875 4400 
L 875 1675 
L 2125 2925 
L 2750 2925 
L 1775 1975 
L 2925 125 
z
" transform="scale(0.015625)"/>
       <path id="SimHei-67" d="M 2975 2500 
Q 2800 2550 2637 2562 
Q 2475 2575 2300 2525 
Q 2375 2450 2425 2337 
Q 2475 2225 2475 2000 
Q 2475 1575 2187 1300 
Q 1900 1025 1475 1025 
Q 1375 1025 1212 1062 
Q 1050 1100 950 1150 
Q 875 1100 850 1050 
Q 825 1000 825 925 
Q 825 800 1000 737 
Q 1175 675 1625 675 
Q 2350 675 2612 475 
Q 2875 275 2875 -25 
Q 2875 -425 2487 -612 
Q 2100 -800 1575 -800 
Q 900 -800 575 -625 
Q 250 -450 250 -150 
Q 250 0 375 150 
Q 500 300 700 400 
Q 550 475 462 587 
Q 375 700 375 875 
Q 375 1025 487 1137 
Q 600 1250 750 1325 
Q 625 1450 550 1625 
Q 475 1800 475 2000 
Q 475 2425 762 2700 
Q 1050 2975 1475 2975 
Q 1700 2975 1862 2912 
Q 2025 2850 2150 2725 
Q 2350 2875 2550 2937 
Q 2750 3000 2975 2975 
L 2975 2500 
z
M 1975 2000 
Q 1975 2250 1850 2400 
Q 1725 2550 1475 2550 
Q 1225 2550 1100 2400 
Q 975 2250 975 2000 
Q 975 1750 1100 1600 
Q 1225 1450 1475 1450 
Q 1725 1450 1850 1600 
Q 1975 1750 1975 2000 
z
M 2400 -75 
Q 2400 25 2287 125 
Q 2175 225 1725 225 
Q 1625 225 1450 237 
Q 1275 250 1050 275 
Q 850 200 775 100 
Q 700 0 700 -100 
Q 700 -250 900 -350 
Q 1100 -450 1600 -450 
Q 2025 -450 2212 -337 
Q 2400 -225 2400 -75 
z
" transform="scale(0.015625)"/>
       <path id="SimHei-2f" d="M 3000 4550 
L 350 -175 
L 100 -25 
L 2750 4700 
L 3000 4550 
z
" transform="scale(0.015625)"/>
      </defs>
      <use xlink:href="#SimHei-542b"/>
      <use xlink:href="#SimHei-6c34" transform="translate(100 0)"/>
      <use xlink:href="#SimHei-7387" transform="translate(200 0)"/>
      <use xlink:href="#SimHei-20" transform="translate(300 0)"/>
      <use xlink:href="#SimHei-28" transform="translate(350 0)"/>
      <use xlink:href="#SimHei-6b" transform="translate(400 0)"/>
      <use xlink:href="#SimHei-67" transform="translate(450 0)"/>
      <use xlink:href="#SimHei-2f" transform="translate(500 0)"/>
      <use xlink:href="#SimHei-6b" transform="translate(550 0)"/>
      <use xlink:href="#SimHei-67" transform="translate(600 0)"/>
      <use xlink:href="#SimHei-29" transform="translate(650 0)"/>
     </g>
    </g>
   </g>
   <g id="line2d_25">
    <path d="M 63.24554 36.414148 
L 76.47852 36.522271 
L 77.886284 36.825017 
L 79.012495 37.354822 
L 79.99793 38.133312 
L 80.983364 39.257797 
L 82.109575 40.998586 
L 83.376563 43.539489 
L 84.502774 46.275014 
L 86.051314 50.708079 
L 87.599854 55.789885 
L 89.570724 62.990913 
L 92.104699 73.143713 
L 96.75032 92.865446 
L 101.536717 112.976424 
L 104.352244 124.210459 
L 108.434759 139.455878 
L 112.798827 154.474237 
L 116.59979 166.378638 
L 119.415318 174.477091 
L 122.653174 183.126974 
L 126.172584 191.755232 
L 129.551217 199.28063 
L 131.944416 204.178626 
L 134.619167 209.292869 
L 137.716248 214.774733 
L 140.813328 219.791665 
L 144.614291 225.435713 
L 148.696806 230.906764 
L 153.623979 236.788685 
L 156.157954 239.545835 
L 158.973482 242.411109 
L 162.070562 245.362881 
L 170.376369 252.239538 
L 173.332673 254.380384 
L 178.11907 257.559216 
L 183.750126 260.889421 
L 190.225839 264.252063 
L 198.531646 267.9607 
L 208.52677 271.68015 
L 221.900526 275.680721 
L 226.686923 276.891704 
L 228.37624 277.302574 
L 238.230587 279.465044 
L 240.764562 279.962413 
L 243.720866 280.535467 
L 248.084934 281.313957 
L 250.055803 281.659952 
L 270.04605 284.622537 
L 272.298472 284.903658 
L 275.958658 285.357777 
L 278.774186 285.682148 
L 281.589714 286.006518 
L 285.109123 286.384951 
L 287.502322 286.644447 
L 292.147942 287.109378 
L 294.118812 287.304001 
L 301.157631 287.952742 
L 302.846948 288.104115 
L 338.041044 290.69908 
L 339.871137 290.807203 
L 346.206074 291.185636 
L 348.176944 291.293759 
L 353.244894 291.57488 
L 355.35654 291.683004 
L 360.00216 291.931688 
L 362.254582 292.039812 
L 366.337098 292.245246 
L 368.730296 292.35337 
L 372.672035 292.547992 
L 375.20601 292.656116 
L 378.72542 292.818301 
L 381.259394 292.926425 
L 384.497251 293.066985 
L 387.172003 293.175109 
L 390.269083 293.304857 
L 393.084611 293.412981 
L 396.181691 293.542729 
L 399.137995 293.650852 
L 401.953523 293.758976 
L 405.050604 293.867099 
L 407.866131 293.975223 
L 411.103988 294.083346 
L 413.778739 294.180658 
L 417.016596 294.288781 
L 419.550571 294.37528 
L 422.929205 294.483404 
L 425.463179 294.569902 
L 429.123366 294.678026 
L 431.516564 294.753712 
L 435.17675 294.861836 
L 437.569949 294.937522 
L 441.511687 295.045646 
L 443.904886 295.121332 
L 447.987401 295.229456 
L 450.239823 295.29433 
L 454.322338 295.402454 
L 456.574761 295.467328 
L 460.938829 295.575451 
L 463.191251 295.640325 
L 467.836871 295.748449 
L 470.089294 295.813323 
L 474.312585 295.910634 
L 474.312585 295.910634 
" clip-path="url(#pbd9baa469c)" style="fill: none; stroke: #ff0000; stroke-width: 2; stroke-linecap: square"/>
   </g>
   <g id="line2d_26">
    <path d="M 63.24554 36.414148 
L 67.468831 36.511459 
L 68.031937 36.749331 
L 68.595042 37.257511 
L 69.158148 38.154937 
L 69.721254 39.560543 
L 70.284359 41.528391 
L 70.988241 44.858596 
L 71.692123 49.259224 
L 72.536781 55.952071 
L 73.662992 66.937422 
L 75.633862 89.25412 
L 79.012495 126.967609 
L 79.99793 135.617492 
L 80.983364 142.4509 
L 82.250352 149.684364 
L 84.361998 160.129098 
L 86.332867 169.449346 
L 90.133829 186.446366 
L 92.245475 195.528743 
L 93.794015 201.205229 
L 95.905661 207.973762 
L 99.425071 218.169812 
L 101.255164 222.819124 
L 102.94448 226.462887 
L 111.53184 244.043774 
L 113.221157 246.930672 
L 115.05125 249.687823 
L 121.949292 259.040508 
L 125.327926 263.019455 
L 126.876466 264.522372 
L 129.410441 266.522657 
L 131.803639 268.490505 
L 136.026931 271.918022 
L 140.390999 274.729233 
L 142.502645 276.221338 
L 144.473514 277.453947 
L 151.371557 281.043648 
L 155.313296 282.741188 
L 157.424942 283.67105 
L 160.522022 284.979345 
L 163.33755 285.941644 
L 169.672487 287.779744 
L 172.488015 288.536609 
L 175.02199 289.206975 
L 186.424877 291.726253 
L 191.211274 292.569617 
L 193.182144 292.915612 
L 200.784068 293.975223 
L 203.740372 294.310406 
L 205.852018 294.526653 
L 208.808322 294.861836 
L 212.609285 295.337579 
L 219.366551 295.964696 
L 220.915091 296.094444 
L 248.22571 298.083917 
L 251.041238 298.192041 
L 255.968411 298.46235 
L 258.36161 298.570473 
L 261.177138 298.678597 
L 263.288783 298.78672 
L 267.230522 298.981343 
L 270.468379 299.089466 
L 274.832447 299.316526 
L 278.633409 299.424649 
L 281.167384 299.511148 
L 284.82757 299.619271 
L 287.220769 299.694958 
L 289.473191 299.803081 
L 292.429495 299.922017 
L 296.793563 300.030141 
L 299.045985 300.095015 
L 303.410053 300.203139 
L 305.662475 300.268013 
L 309.463438 300.376136 
L 312.560518 300.505884 
L 317.769245 300.614008 
L 319.88089 300.66807 
L 325.230393 300.776193 
L 327.342039 300.830255 
L 332.832318 300.938379 
L 334.803187 300.981628 
L 340.434243 301.089752 
L 342.405112 301.133001 
L 348.31772 301.241125 
L 350.28859 301.284374 
L 355.919645 301.392497 
L 358.594396 301.489809 
L 366.055545 301.597932 
L 367.885638 301.630369 
L 375.346786 301.738493 
L 377.176879 301.77093 
L 385.060357 301.879053 
L 386.89045 301.91149 
L 395.196257 302.019614 
L 397.02635 302.052051 
L 405.895262 302.160175 
L 407.584579 302.181799 
L 416.453491 302.289923 
L 418.142807 302.311548 
L 427.715602 302.419671 
L 429.404918 302.441296 
L 439.681594 302.549419 
L 441.370911 302.571044 
L 452.492245 302.679168 
L 454.181562 302.700792 
L 466.147555 302.808916 
L 467.836871 302.830541 
L 474.312585 302.884602 
L 474.312585 302.884602 
" clip-path="url(#pbd9baa469c)" style="fill: none; stroke: #0000ff; stroke-width: 2; stroke-linecap: square"/>
   </g>
   <g id="line2d_27">
    <path d="M 42.692188 295.910634 
L 494.865938 295.910634 
" clip-path="url(#pbd9baa469c)" style="fill: none; stroke-dasharray: 5.55,2.4; stroke-dashoffset: 0; stroke: #000000; stroke-width: 1.5"/>
   </g>
   <g id="patch_3">
    <path d="M 42.692188 316.208125 
L 42.692188 23.090625 
" style="fill: none; stroke: #000000; stroke-width: 0.8; stroke-linejoin: miter; stroke-linecap: square"/>
   </g>
   <g id="patch_4">
    <path d="M 494.865938 316.208125 
L 494.865938 23.090625 
" style="fill: none; stroke: #000000; stroke-width: 0.8; stroke-linejoin: miter; stroke-linecap: square"/>
   </g>
   <g id="patch_5">
    <path d="M 42.692188 316.208125 
L 494.865938 316.208125 
" style="fill: none; stroke: #000000; stroke-width: 0.8; stroke-linejoin: miter; stroke-linecap: square"/>
   </g>
   <g id="patch_6">
    <path d="M 42.692188 23.090625 
L 494.865938 23.090625 
" style="fill: none; stroke: #000000; stroke-width: 0.8; stroke-linejoin: miter; stroke-linecap: square"/>
   </g>
   <g id="text_15">
    <!-- q4：中心与表面含水率（含收缩） -->
    <g transform="translate(178.779063 17.090625) scale(0.12 -0.12)">
     <defs>
      <path id="SimHei-71" d="M 2750 -800 
L 2250 -800 
L 2250 500 
Q 2100 275 1900 162 
Q 1700 50 1425 50 
Q 925 50 575 425 
Q 225 800 225 1525 
Q 225 2250 575 2612 
Q 925 2975 1425 2975 
Q 1700 2975 1900 2875 
Q 2100 2775 2250 2550 
L 2250 2925 
L 2750 2925 
L 2750 -800 
z
M 2250 1525 
Q 2250 2000 2037 2262 
Q 1825 2525 1525 2525 
Q 1150 2525 962 2262 
Q 775 2000 775 1525 
Q 775 1050 962 775 
Q 1150 500 1525 500 
Q 1825 500 2037 775 
Q 2250 1050 2250 1525 
z
" transform="scale(0.015625)"/>
      <path id="SimHei-ff1a" d="M 1200 2425 
L 2025 2425 
L 2025 1600 
L 1200 1600 
L 1200 2425 
z
M 1200 825 
L 2025 825 
L 2025 0 
L 1200 0 
L 1200 825 
z
" transform="scale(0.015625)"/>
      <path id="SimHei-4e2d" d="M 3475 5200 
Q 3450 4500 3450 3875 
L 5625 3875 
Q 5600 3375 5600 2500 
Q 5600 1650 5625 1225 
L 5075 1225 
L 5075 1600 
L 3450 1600 
L 3450 525 
Q 3450 225 3475 -600 
L 2875 -600 
Q 2925 -150 2925 450 
L 2925 1600 
L 1300 1600 
L 1300 1225 
L 750 1225 
Q 775 1600 775 2500 
Q 775 3425 750 3875 
L 2925 3875 
Q 2925 4550 2900 5200 
L 3475 5200 
z
M 5075 2000 
L 5075 3475 
L 3450 3475 
L 3450 2000 
L 5075 2000 
z
M 2925 2000 
L 2925 3475 
L 1300 3475 
L 1300 2000 
L 2925 2000 
z
" transform="scale(0.015625)"/>
      <path id="SimHei-5fc3" d="M 2700 3425 
Q 2675 3125 2675 2525 
L 2675 375 
Q 2675 75 2975 75 
L 4150 75 
Q 4425 50 4512 212 
Q 4600 375 4650 950 
Q 4900 750 5225 675 
Q 5050 -125 4875 -287 
Q 4700 -450 4450 -425 
L 2625 -425 
Q 2175 -425 2125 125 
L 2125 2500 
Q 2125 3000 2100 3425 
L 2700 3425 
z
M 1475 3075 
Q 1400 2925 1275 2287 
Q 1150 1650 925 750 
Q 625 850 325 900 
Q 675 1900 850 3200 
Q 1075 3150 1475 3075 
z
M 5075 3300 
Q 5650 2500 6175 1700 
Q 5900 1575 5650 1350 
Q 5125 2350 4625 3000 
Q 4850 3125 5075 3300 
z
M 3050 5250 
Q 3325 4775 3925 3925 
Q 3625 3775 3375 3600 
Q 2975 4425 2600 4950 
Q 2825 5075 3050 5250 
z
" transform="scale(0.015625)"/>
      <path id="SimHei-4e0e" d="M 5350 100 
Q 5275 -300 4925 -425 
Q 4575 -550 3900 -600 
Q 3875 -375 3650 -25 
Q 4375 -50 4575 0 
Q 4775 50 4837 225 
Q 4900 400 5100 2350 
L 1125 2350 
Q 1450 4350 1475 5200 
Q 1800 5150 2075 5125 
Q 1975 4825 1900 4275 
L 4900 4275 
Q 5400 4275 5800 4300 
L 5800 3825 
Q 5400 3850 4950 3850 
L 1850 3850 
L 1700 2750 
L 5675 2750 
Q 5625 2450 5575 2050 
L 5350 100 
z
M 3675 1350 
Q 4125 1350 4500 1375 
L 4500 875 
Q 4125 900 3850 900 
L 1450 900 
Q 1000 900 500 875 
L 500 1375 
Q 1000 1350 1450 1350 
L 3675 1350 
z
" transform="scale(0.015625)"/>
      <path id="SimHei-8868" d="M 2950 4475 
Q 2950 4800 2925 5200 
L 3500 5200 
Q 3450 4900 3450 4475 
L 4975 4475 
Q 5325 4475 5725 4500 
L 5725 4025 
Q 5325 4075 5000 4075 
L 3450 4075 
L 3450 3600 
L 4675 3600 
Q 5075 3600 5450 3625 
L 5450 3175 
Q 5100 3200 4675 3200 
L 3450 3200 
L 3450 2650 
L 5225 2650 
Q 5675 2650 6075 2675 
L 6075 2200 
Q 5700 2250 5250 2250 
L 3075 2250 
Q 2900 2025 2525 1625 
L 2525 175 
Q 2975 425 3525 800 
Q 3575 500 3700 275 
Q 3225 50 2837 -200 
Q 2450 -450 2250 -625 
Q 2050 -375 1900 -175 
Q 2075 -50 2050 400 
L 2050 1200 
Q 1750 950 1425 737 
Q 1100 525 750 325 
Q 600 550 375 750 
Q 975 1000 1562 1425 
Q 2150 1850 2450 2250 
L 1275 2250 
Q 800 2250 350 2200 
L 350 2675 
Q 650 2650 1350 2650 
L 2950 2650 
L 2950 3200 
L 1825 3200 
Q 1400 3200 1125 3175 
L 1125 3625 
Q 1525 3600 1825 3600 
L 2950 3600 
L 2950 4075 
L 1700 4075 
Q 1225 4075 825 4025 
L 825 4525 
Q 1200 4475 1825 4475 
L 2950 4475 
z
M 3550 2125 
Q 3725 1600 4150 1050 
Q 4650 1450 5050 2000 
Q 5275 1775 5575 1575 
Q 5350 1500 5075 1262 
Q 4800 1025 4475 725 
Q 4725 475 5225 337 
Q 5725 200 6150 175 
Q 5925 -100 5875 -425 
Q 4600 -125 4012 500 
Q 3425 1125 3150 1950 
L 3550 2125 
z
" transform="scale(0.015625)"/>
      <path id="SimHei-9762" d="M 5275 4850 
Q 5650 4850 5950 4875 
L 5950 4400 
Q 5600 4425 5275 4425 
L 3275 4425 
Q 3175 4200 2950 3575 
L 5525 3575 
Q 5500 3100 5500 2600 
L 5500 450 
Q 5500 -100 5525 -525 
L 5025 -525 
L 5025 -175 
L 1350 -175 
L 1350 -525 
L 850 -525 
Q 875 -200 875 425 
L 875 2650 
Q 875 3125 850 3575 
L 2475 3575 
Q 2700 4150 2750 4425 
L 1175 4425 
Q 800 4425 425 4400 
L 425 4875 
Q 825 4850 1175 4850 
L 5275 4850 
z
M 2200 225 
L 2200 3175 
L 1350 3175 
L 1350 225 
L 2200 225 
z
M 5025 225 
L 5025 3175 
L 4175 3175 
L 4175 225 
L 5025 225 
z
M 3750 225 
L 3750 1050 
L 2625 1050 
L 2625 225 
L 3750 225 
z
M 3750 2475 
L 3750 3175 
L 2625 3175 
L 2625 2475 
L 3750 2475 
z
M 3750 1425 
L 3750 2100 
L 2625 2100 
L 2625 1425 
L 3750 1425 
z
" transform="scale(0.015625)"/>
      <path id="SimHei-ff08" d="M 5425 5100 
L 5700 4775 
Q 4275 3725 4325 2350 
Q 4350 1025 5675 50 
L 5400 -275 
Q 3875 825 3925 2500 
Q 3925 3875 5425 5100 
z
" transform="scale(0.015625)"/>
      <path id="SimHei-6536" d="M 4250 5050 
Q 4125 4850 3750 4050 
L 5150 4050 
Q 5675 4050 6125 4075 
L 6125 3600 
Q 5675 3625 5300 3625 
Q 5225 2625 5025 1975 
Q 4825 1325 4575 900 
Q 4900 500 5287 275 
Q 5675 50 6200 -75 
Q 5900 -275 5800 -550 
Q 5300 -350 4950 -100 
Q 4600 150 4275 525 
Q 3800 0 2775 -625 
Q 2650 -425 2300 -225 
Q 3275 150 3950 925 
Q 3775 1325 3612 1787 
Q 3450 2250 3250 3000 
Q 2975 2450 2825 2275 
Q 2650 2400 2425 2525 
Q 2775 3025 3137 3837 
Q 3500 4650 3625 5250 
Q 3925 5125 4250 5050 
z
M 975 4275 
Q 925 3950 925 3450 
L 925 1575 
L 1775 1725 
L 1775 4425 
Q 1775 4775 1750 5150 
L 2250 5150 
Q 2225 4850 2225 4450 
L 2225 300 
Q 2225 -50 2250 -550 
L 1750 -550 
Q 1775 -25 1775 350 
L 1775 1350 
Q 625 1050 500 925 
Q 375 1125 225 1350 
Q 450 1475 450 1800 
L 450 3575 
Q 450 3925 425 4275 
L 975 4275 
z
M 3725 3150 
Q 3800 2700 3962 2212 
Q 4125 1725 4300 1375 
Q 4725 2150 4825 3625 
L 3575 3625 
Q 3400 3275 3300 3100 
L 3725 3150 
z
" transform="scale(0.015625)"/>
      <path id="SimHei-7f29" d="M 5375 3400 
Q 5650 3400 6000 3425 
L 6000 3000 
Q 5650 3025 5025 3025 
L 4850 2325 
L 5850 2325 
Q 5825 1850 5825 1450 
L 5825 175 
Q 5825 -175 5850 -700 
L 5400 -700 
L 5400 -225 
L 4275 -225 
L 4275 -700 
L 3825 -700 
Q 3850 -200 3850 175 
L 3850 1450 
Q 3850 1850 3825 2325 
L 4400 2325 
Q 4500 2600 4575 3025 
Q 4100 3025 3750 3000 
L 3750 3425 
Q 4100 3400 4500 3400 
L 5375 3400 
z
M 1825 4975 
Q 1600 4725 1325 4175 
Q 1050 3625 775 3150 
Q 1100 3150 1450 3175 
Q 1575 3475 1675 3850 
Q 1925 3700 2225 3575 
Q 2000 3300 1750 2837 
Q 1500 2375 1025 1600 
Q 1575 1625 2125 1700 
Q 2075 1475 2100 1275 
Q 1850 1250 1375 1225 
Q 900 1200 475 1050 
Q 450 1300 300 1500 
Q 650 1650 837 1962 
Q 1025 2275 1300 2800 
Q 675 2775 375 2650 
Q 275 2925 200 3100 
Q 375 3150 537 3412 
Q 700 3675 962 4237 
Q 1225 4800 1275 5200 
Q 1550 5050 1825 4975 
z
M 3750 3675 
Q 3525 3475 3437 3312 
Q 3350 3150 3200 2900 
L 3200 -700 
L 2725 -700 
Q 2750 -275 2750 75 
L 2750 2275 
Q 2600 2075 2425 1775 
Q 2225 1950 2000 2050 
Q 2450 2475 2762 2975 
Q 3075 3475 3225 3900 
Q 3450 3750 3750 3675 
z
M 4375 5250 
Q 4450 5075 4575 4550 
L 6125 4550 
Q 6100 4300 6100 4100 
Q 6100 3900 6125 3675 
L 5650 3675 
L 5650 4150 
L 2900 4150 
L 2900 3425 
L 2425 3425 
Q 2450 3750 2450 4025 
Q 2450 4300 2425 4550 
L 4025 4550 
Q 3975 4850 3850 5125 
Q 4075 5200 4375 5250 
z
M 2225 600 
Q 2225 350 2250 125 
Q 1750 50 1262 -50 
Q 775 -150 400 -275 
Q 375 0 225 350 
Q 725 350 1125 400 
Q 1525 450 2225 600 
z
M 5400 1250 
L 5400 1950 
L 4275 1950 
L 4275 1250 
L 5400 1250 
z
M 5400 150 
L 5400 850 
L 4275 850 
L 4275 150 
L 5400 150 
z
" transform="scale(0.015625)"/>
      <path id="SimHei-ff09" d="M 1000 5100 
Q 2500 3875 2500 2500 
Q 2550 825 1025 -275 
L 750 50 
Q 2075 1025 2100 2350 
Q 2150 3725 725 4775 
L 1000 5100 
z
" transform="scale(0.015625)"/>
     </defs>
     <use xlink:href="#SimHei-71"/>
     <use xlink:href="#SimHei-34" transform="translate(50 0)"/>
     <use xlink:href="#SimHei-ff1a" transform="translate(100 0)"/>
     <use xlink:href="#SimHei-4e2d" transform="translate(200 0)"/>
     <use xlink:href="#SimHei-5fc3" transform="translate(300 0)"/>
     <use xlink:href="#SimHei-4e0e" transform="translate(400 0)"/>
     <use xlink:href="#SimHei-8868" transform="translate(500 0)"/>
     <use xlink:href="#SimHei-9762" transform="translate(600 0)"/>
     <use xlink:href="#SimHei-542b" transform="translate(700 0)"/>
     <use xlink:href="#SimHei-6c34" transform="translate(800 0)"/>
     <use xlink:href="#SimHei-7387" transform="translate(900 0)"/>
     <use xlink:href="#SimHei-ff08" transform="translate(1000 0)"/>
     <use xlink:href="#SimHei-542b" transform="translate(1100 0)"/>
     <use xlink:href="#SimHei-6536" transform="translate(1200 0)"/>
     <use xlink:href="#SimHei-7f29" transform="translate(1300 0)"/>
     <use xlink:href="#SimHei-ff09" transform="translate(1400 0)"/>
    </g>
   </g>
   <g id="legend_1">
    <g id="patch_7">
     <path d="M 400.865938 73.278125 
L 487.865938 73.278125 
Q 489.865938 73.278125 489.865938 71.278125 
L 489.865938 30.090625 
Q 489.865938 28.090625 487.865938 28.090625 
L 400.865938 28.090625 
Q 398.865938 28.090625 398.865938 30.090625 
L 398.865938 71.278125 
Q 398.865938 73.278125 400.865938 73.278125 
z
" style="fill: #ffffff; opacity: 0.8; stroke: #cccccc; stroke-linejoin: miter"/>
    </g>
    <g id="line2d_28">
     <path d="M 402.865938 36.48125 
L 412.865938 36.48125 
L 422.865938 36.48125 
" style="fill: none; stroke: #ff0000; stroke-width: 2; stroke-linecap: square"/>
    </g>
    <g id="text_16">
     <!-- 中心 (r=0) -->
     <g transform="translate(430.865938 39.98125) scale(0.1 -0.1)">
      <defs>
       <path id="SimHei-72" d="M 2500 2425 
Q 2025 2500 1700 2287 
Q 1375 2075 1150 1550 
L 1150 125 
L 650 125 
L 650 2925 
L 1150 2925 
L 1150 2200 
Q 1375 2600 1712 2787 
Q 2050 2975 2500 2975 
L 2500 2425 
z
" transform="scale(0.015625)"/>
       <path id="SimHei-3d" d="M 2975 2900 
L 125 2900 
L 125 3300 
L 2975 3300 
L 2975 2900 
z
M 2975 1375 
L 125 1375 
L 125 1775 
L 2975 1775 
L 2975 1375 
z
" transform="scale(0.015625)"/>
      </defs>
      <use xlink:href="#SimHei-4e2d"/>
      <use xlink:href="#SimHei-5fc3" transform="translate(100 0)"/>
      <use xlink:href="#SimHei-20" transform="translate(200 0)"/>
      <use xlink:href="#SimHei-28" transform="translate(250 0)"/>
      <use xlink:href="#SimHei-72" transform="translate(300 0)"/>
      <use xlink:href="#SimHei-3d" transform="translate(350 0)"/>
      <use xlink:href="#SimHei-30" transform="translate(400 0)"/>
      <use xlink:href="#SimHei-29" transform="translate(450 0)"/>
     </g>
    </g>
    <g id="line2d_29">
     <path d="M 402.865938 50.582812 
L 412.865938 50.582812 
L 422.865938 50.582812 
" style="fill: none; stroke: #0000ff; stroke-width: 2; stroke-linecap: square"/>
    </g>
    <g id="text_17">
     <!-- 药材表面 -->
     <g transform="translate(430.865938 54.082812) scale(0.1 -0.1)">
      <defs>
       <path id="SimHei-836f" d="M 4425 3450 
Q 4225 3225 4100 2950 
L 5825 2950 
Q 5800 2500 5775 1975 
L 5725 125 
Q 5700 -225 5450 -350 
Q 5200 -475 4575 -575 
Q 4500 -300 4300 -50 
Q 4975 -50 5100 12 
Q 5225 75 5275 325 
L 5350 2500 
L 3900 2500 
Q 3600 1950 3250 1500 
Q 3100 1700 2775 1850 
Q 3125 2150 3437 2725 
Q 3750 3300 3825 3625 
Q 4075 3525 4425 3450 
z
M 2675 5150 
Q 2625 4900 2625 4525 
L 3875 4525 
Q 3875 4900 3850 5175 
L 4350 5175 
Q 4325 4900 4325 4525 
L 5200 4525 
Q 5675 4525 6125 4550 
L 6125 4075 
Q 5675 4100 5200 4100 
L 4325 4100 
Q 4325 3925 4350 3675 
L 3875 3675 
L 3875 4100 
L 2625 4100 
L 2625 3550 
L 2125 3550 
Q 2150 3850 2150 4100 
L 1175 4100 
Q 750 4100 300 4075 
L 300 4550 
Q 725 4525 1175 4525 
L 2150 4525 
Q 2150 4900 2125 5150 
L 2675 5150 
z
M 2175 3400 
Q 1950 3250 1775 2962 
Q 1600 2675 1275 2250 
L 2000 2250 
Q 2275 2650 2400 2975 
Q 2625 2825 2975 2725 
Q 2700 2550 2362 2050 
Q 2025 1550 1675 1150 
Q 2000 1200 2900 1300 
Q 2825 1100 2800 900 
Q 2475 875 1887 787 
Q 1300 700 1025 575 
Q 925 800 750 1050 
Q 1025 1075 1262 1287 
Q 1500 1500 1800 1925 
Q 1625 1925 1300 1887 
Q 975 1850 775 1750 
Q 675 2025 525 2225 
Q 825 2300 1112 2712 
Q 1400 3125 1625 3650 
Q 1850 3500 2175 3400 
z
M 3025 450 
Q 3000 175 3000 0 
Q 2325 -125 1737 -262 
Q 1150 -400 875 -525 
Q 800 -250 600 25 
Q 1100 75 1737 187 
Q 2375 300 3025 450 
z
M 4075 1775 
Q 4400 1325 4675 800 
Q 4450 700 4225 550 
Q 3975 1100 3650 1525 
Q 3875 1600 4075 1775 
z
" transform="scale(0.015625)"/>
       <path id="SimHei-6750" d="M 4675 3750 
L 4675 4300 
Q 4675 4750 4650 5175 
L 5200 5175 
Q 5150 4750 5150 4275 
L 5150 3750 
Q 5650 3750 6100 3775 
L 6100 3300 
Q 5650 3325 5150 3325 
L 5150 125 
Q 5150 -250 4962 -375 
Q 4775 -500 4225 -625 
Q 4150 -325 4000 -50 
Q 4425 -50 4550 0 
Q 4675 50 4675 325 
L 4675 2675 
Q 4325 2000 3887 1412 
Q 3450 825 2800 225 
Q 2675 400 2400 625 
Q 2950 975 3512 1675 
Q 4075 2375 4500 3325 
L 3650 3325 
Q 3350 3325 2950 3300 
L 2950 3775 
Q 3350 3750 3650 3750 
L 4675 3750 
z
M 2200 2700 
Q 2650 2125 2850 1825 
Q 2625 1675 2450 1550 
Q 2100 2150 1925 2325 
L 1925 425 
Q 1925 -100 1950 -625 
L 1425 -625 
Q 1450 -75 1450 425 
L 1450 2175 
Q 1275 1800 1037 1400 
Q 800 1000 550 650 
Q 475 825 225 1100 
Q 525 1425 875 2062 
Q 1225 2700 1400 3325 
Q 875 3325 425 3300 
L 425 3775 
Q 925 3750 1450 3750 
L 1450 4350 
Q 1450 4725 1425 5175 
L 1950 5175 
Q 1925 4775 1925 4350 
L 1925 3750 
Q 2300 3750 2725 3775 
L 2725 3300 
Q 2300 3325 1925 3325 
L 1925 2475 
Q 2125 2600 2200 2700 
z
" transform="scale(0.015625)"/>
      </defs>
      <use xlink:href="#SimHei-836f"/>
      <use xlink:href="#SimHei-6750" transform="translate(100 0)"/>
      <use xlink:href="#SimHei-8868" transform="translate(200 0)"/>
      <use xlink:href="#SimHei-9762" transform="translate(300 0)"/>
     </g>
    </g>
    <g id="line2d_30">
     <path d="M 402.865938 64.528125 
L 412.865938 64.528125 
L 422.865938 64.528125 
" style="fill: none; stroke-dasharray: 5.55,2.4; stroke-dashoffset: 0; stroke: #000000; stroke-width: 1.5"/>
    </g>
    <g id="text_18">
     <!-- 判据 C=0.15 -->
     <g transform="translate(430.865938 68.028125) scale(0.1 -0.1)">
      <defs>
       <path id="SimHei-5224" d="M 225 -225 
Q 900 50 1262 475 
Q 1625 900 1700 1575 
Q 700 1575 250 1550 
L 250 2000 
Q 700 1975 1750 1975 
L 1750 2850 
Q 975 2850 500 2825 
L 500 3275 
Q 975 3250 1750 3250 
Q 1750 4600 1700 5100 
L 2275 5100 
Q 2225 4825 2225 4325 
L 2225 3250 
Q 2925 3250 3325 3275 
L 3325 2825 
Q 2925 2850 2225 2850 
L 2225 1975 
Q 3125 1975 3550 2000 
L 3550 1550 
Q 3150 1575 2200 1575 
Q 2100 750 1662 225 
Q 1225 -300 700 -600 
Q 550 -375 225 -225 
z
M 4500 25 
Q 5050 -25 5175 0 
Q 5300 25 5300 200 
L 5300 4300 
Q 5300 4825 5275 5125 
L 5800 5125 
Q 5775 4800 5775 4300 
L 5775 50 
Q 5775 -325 5550 -425 
Q 5325 -525 4750 -575 
Q 4700 -200 4500 25 
z
M 4025 850 
Q 4050 1225 4050 1675 
L 4050 3575 
Q 4050 4050 4025 4350 
L 4550 4350 
Q 4525 3925 4525 3500 
L 4525 1675 
Q 4525 1225 4550 850 
L 4025 850 
z
M 825 3575 
Q 625 4175 400 4475 
Q 625 4525 850 4675 
Q 1075 4350 1325 3775 
Q 1100 3700 825 3575 
z
M 3575 4475 
Q 3375 4250 3262 4037 
Q 3150 3825 3050 3600 
Q 2800 3725 2600 3800 
Q 2750 4000 2887 4237 
Q 3025 4475 3100 4700 
Q 3275 4575 3575 4475 
z
" transform="scale(0.015625)"/>
       <path id="SimHei-636e" d="M 5750 4775 
Q 5725 4550 5725 4225 
L 5725 3900 
Q 5725 3450 5750 3250 
L 3100 3250 
L 3100 2500 
L 4250 2500 
Q 4250 2725 4225 3175 
L 4700 3175 
Q 4675 2775 4675 2500 
L 5350 2500 
Q 5800 2500 6100 2525 
L 6100 2075 
Q 5800 2100 5375 2100 
L 4675 2100 
L 4675 1425 
L 5775 1425 
Q 5750 950 5750 800 
L 5750 175 
Q 5750 -225 5775 -575 
L 5325 -575 
L 5325 -225 
L 3675 -225 
L 3675 -600 
L 3225 -600 
Q 3250 -325 3250 100 
L 3250 825 
Q 3250 1075 3225 1425 
L 4250 1425 
L 4250 2100 
L 3075 2100 
Q 3050 1375 2887 737 
Q 2725 100 2425 -475 
Q 2200 -325 1950 -250 
Q 2250 150 2387 600 
Q 2525 1050 2600 1562 
Q 2675 2075 2675 2625 
L 2675 3575 
Q 2675 3975 2650 4775 
L 5750 4775 
z
M 1275 4425 
Q 1275 4775 1250 5075 
L 1750 5075 
Q 1725 4800 1725 4425 
L 1725 3775 
Q 1975 3775 2500 3800 
L 2500 3375 
Q 1975 3400 1725 3400 
L 1725 2450 
Q 2050 2625 2400 2850 
Q 2425 2650 2525 2475 
Q 2050 2200 1725 2000 
L 1725 175 
Q 1725 -300 1487 -400 
Q 1250 -500 775 -575 
Q 725 -325 600 -50 
Q 1025 -50 1150 -12 
Q 1275 25 1275 325 
L 1275 1800 
Q 900 1600 525 1325 
Q 450 1525 275 1800 
Q 775 1975 1275 2250 
L 1275 3400 
Q 800 3400 350 3375 
L 350 3800 
Q 800 3775 1275 3775 
L 1275 4425 
z
M 5300 3625 
L 5300 4400 
L 3100 4400 
L 3100 3625 
L 5300 3625 
z
M 5325 150 
L 5325 1075 
L 3675 1075 
L 3675 150 
L 5325 150 
z
" transform="scale(0.015625)"/>
       <path id="SimHei-43" d="M 2975 1825 
Q 2950 875 2575 475 
Q 2200 75 1675 75 
Q 1075 75 650 562 
Q 225 1050 225 2125 
Q 225 3300 637 3875 
Q 1050 4450 1700 4450 
Q 2250 4450 2612 4037 
Q 2975 3625 2950 2875 
L 2400 2875 
Q 2400 3425 2225 3700 
Q 2050 3975 1700 3975 
Q 1300 3975 1062 3562 
Q 825 3150 825 2175 
Q 825 1275 1062 912 
Q 1300 550 1675 550 
Q 1950 550 2175 812 
Q 2400 1075 2400 1825 
L 2975 1825 
z
" transform="scale(0.015625)"/>
      </defs>
      <use xlink:href="#SimHei-5224"/>
      <use xlink:href="#SimHei-636e" transform="translate(100 0)"/>
      <use xlink:href="#SimHei-20" transform="translate(200 0)"/>
      <use xlink:href="#SimHei-43" transform="translate(250 0)"/>
      <use xlink:href="#SimHei-3d" transform="translate(300 0)"/>
      <use xlink:href="#SimHei-30" transform="translate(350 0)"/>
      <use xlink:href="#SimHei-2e" transform="translate(400 0)"/>
      <use xlink:href="#SimHei-31" transform="translate(450 0)"/>
      <use xlink:href="#SimHei-35" transform="translate(500 0)"/>
     </g>
    </g>
   </g>
  </g>
  <g id="axes_2">
   <g id="patch_8">
    <path d="M 540.977188 316.208125 
L 993.150938 316.208125 
L 993.150938 23.090625 
L 540.977188 23.090625 
z
" style="fill: #ffffff"/>
   </g>
   <g id="matplotlib.axis_3">
    <g id="xtick_7">
     <g id="line2d_31">
      <path d="M 561.53054 316.208125 
L 561.53054 23.090625 
" clip-path="url(#p7c92eb1b79)" style="fill: none; stroke: #b0b0b0; stroke-opacity: 0.3; stroke-width: 0.8; stroke-linecap: square"/>
     </g>
     <g id="line2d_32">
      <g>
       <use xlink:href="#m9866f1197e" x="561.53054" y="316.208125" style="stroke: #000000; stroke-width: 0.8"/>
      </g>
     </g>
     <g id="text_19">
      <!-- 0 -->
      <g transform="translate(559.03054 330.083125) scale(0.1 -0.1)">
       <use xlink:href="#SimHei-30"/>
      </g>
     </g>
    </g>
    <g id="xtick_8">
     <g id="line2d_33">
      <path d="M 618.623185 316.208125 
L 618.623185 23.090625 
" clip-path="url(#p7c92eb1b79)" style="fill: none; stroke: #b0b0b0; stroke-opacity: 0.3; stroke-width: 0.8; stroke-linecap: square"/>
     </g>
     <g id="line2d_34">
      <g>
       <use xlink:href="#m9866f1197e" x="618.623185" y="316.208125" style="stroke: #000000; stroke-width: 0.8"/>
      </g>
     </g>
     <g id="text_20">
      <!-- 10 -->
      <g transform="translate(613.623185 330.083125) scale(0.1 -0.1)">
       <use xlink:href="#SimHei-31"/>
       <use xlink:href="#SimHei-30" transform="translate(50 0)"/>
      </g>
     </g>
    </g>
    <g id="xtick_9">
     <g id="line2d_35">
      <path d="M 675.71583 316.208125 
L 675.71583 23.090625 
" clip-path="url(#p7c92eb1b79)" style="fill: none; stroke: #b0b0b0; stroke-opacity: 0.3; stroke-width: 0.8; stroke-linecap: square"/>
     </g>
     <g id="line2d_36">
      <g>
       <use xlink:href="#m9866f1197e" x="675.71583" y="316.208125" style="stroke: #000000; stroke-width: 0.8"/>
      </g>
     </g>
     <g id="text_21">
      <!-- 20 -->
      <g transform="translate(670.71583 330.083125) scale(0.1 -0.1)">
       <use xlink:href="#SimHei-32"/>
       <use xlink:href="#SimHei-30" transform="translate(50 0)"/>
      </g>
     </g>
    </g>
    <g id="xtick_10">
     <g id="line2d_37">
      <path d="M 732.808475 316.208125 
L 732.808475 23.090625 
" clip-path="url(#p7c92eb1b79)" style="fill: none; stroke: #b0b0b0; stroke-opacity: 0.3; stroke-width: 0.8; stroke-linecap: square"/>
     </g>
     <g id="line2d_38">
      <g>
       <use xlink:href="#m9866f1197e" x="732.808475" y="316.208125" style="stroke: #000000; stroke-width: 0.8"/>
      </g>
     </g>
     <g id="text_22">
      <!-- 30 -->
      <g transform="translate(727.808475 330.083125) scale(0.1 -0.1)">
       <use xlink:href="#SimHei-33"/>
       <use xlink:href="#SimHei-30" transform="translate(50 0)"/>
      </g>
     </g>
    </g>
    <g id="xtick_11">
     <g id="line2d_39">
      <path d="M 789.901121 316.208125 
L 789.901121 23.090625 
" clip-path="url(#p7c92eb1b79)" style="fill: none; stroke: #b0b0b0; stroke-opacity: 0.3; stroke-width: 0.8; stroke-linecap: square"/>
     </g>
     <g id="line2d_40">
      <g>
       <use xlink:href="#m9866f1197e" x="789.901121" y="316.208125" style="stroke: #000000; stroke-width: 0.8"/>
      </g>
     </g>
     <g id="text_23">
      <!-- 40 -->
      <g transform="translate(784.901121 330.083125) scale(0.1 -0.1)">
       <use xlink:href="#SimHei-34"/>
       <use xlink:href="#SimHei-30" transform="translate(50 0)"/>
      </g>
     </g>
    </g>
    <g id="xtick_12">
     <g id="line2d_41">
      <path d="M 846.993766 316.208125 
L 846.993766 23.090625 
" clip-path="url(#p7c92eb1b79)" style="fill: none; stroke: #b0b0b0; stroke-opacity: 0.3; stroke-width: 0.8; stroke-linecap: square"/>
     </g>
     <g id="line2d_42">
      <g>
       <use xlink:href="#m9866f1197e" x="846.993766" y="316.208125" style="stroke: #000000; stroke-width: 0.8"/>
      </g>
     </g>
     <g id="text_24">
      <!-- 50 -->
      <g transform="translate(841.993766 330.083125) scale(0.1 -0.1)">
       <use xlink:href="#SimHei-35"/>
       <use xlink:href="#SimHei-30" transform="translate(50 0)"/>
      </g>
     </g>
    </g>
    <g id="xtick_13">
     <g id="line2d_43">
      <path d="M 904.086411 316.208125 
L 904.086411 23.090625 
" clip-path="url(#p7c92eb1b79)" style="fill: none; stroke: #b0b0b0; stroke-opacity: 0.3; stroke-width: 0.8; stroke-linecap: square"/>
     </g>
     <g id="line2d_44">
      <g>
       <use xlink:href="#m9866f1197e" x="904.086411" y="316.208125" style="stroke: #000000; stroke-width: 0.8"/>
      </g>
     </g>
     <g id="text_25">
      <!-- 60 -->
      <g transform="translate(899.086411 330.083125) scale(0.1 -0.1)">
       <defs>
        <path id="SimHei-36" d="M 250 1612 
Q 275 1975 387 2225 
Q 500 2475 725 2850 
L 1750 4450 
L 2325 4450 
L 1275 2800 
Q 1950 2975 2350 2750 
Q 2750 2525 2887 2237 
Q 3025 1950 3037 1612 
Q 3050 1275 2937 950 
Q 2825 625 2537 362 
Q 2250 100 1737 75 
Q 1225 50 862 262 
Q 500 475 362 862 
Q 225 1250 250 1612 
z
M 1025 787 
Q 1250 550 1625 525 
Q 2000 500 2250 775 
Q 2500 1050 2500 1575 
Q 2500 2100 2187 2300 
Q 1875 2500 1487 2450 
Q 1100 2400 925 2075 
Q 750 1750 775 1387 
Q 800 1025 1025 787 
z
" transform="scale(0.015625)"/>
       </defs>
       <use xlink:href="#SimHei-36"/>
       <use xlink:href="#SimHei-30" transform="translate(50 0)"/>
      </g>
     </g>
    </g>
    <g id="xtick_14">
     <g id="line2d_45">
      <path d="M 961.179056 316.208125 
L 961.179056 23.090625 
" clip-path="url(#p7c92eb1b79)" style="fill: none; stroke: #b0b0b0; stroke-opacity: 0.3; stroke-width: 0.8; stroke-linecap: square"/>
     </g>
     <g id="line2d_46">
      <g>
       <use xlink:href="#m9866f1197e" x="961.179056" y="316.208125" style="stroke: #000000; stroke-width: 0.8"/>
      </g>
     </g>
     <g id="text_26">
      <!-- 70 -->
      <g transform="translate(956.179056 330.083125) scale(0.1 -0.1)">
       <defs>
        <path id="SimHei-37" d="M 850 150 
Q 1300 2050 2425 3925 
L 275 3925 
L 275 4375 
L 2950 4375 
L 2950 3950 
Q 1775 2050 1400 150 
L 850 150 
z
" transform="scale(0.015625)"/>
       </defs>
       <use xlink:href="#SimHei-37"/>
       <use xlink:href="#SimHei-30" transform="translate(50 0)"/>
      </g>
     </g>
    </g>
    <g id="text_27">
     <!-- 时间 (h) -->
     <g transform="translate(747.064063 343.340937) scale(0.1 -0.1)">
      <use xlink:href="#SimHei-65f6"/>
      <use xlink:href="#SimHei-95f4" transform="translate(100 0)"/>
      <use xlink:href="#SimHei-20" transform="translate(200 0)"/>
      <use xlink:href="#SimHei-28" transform="translate(250 0)"/>
      <use xlink:href="#SimHei-68" transform="translate(300 0)"/>
      <use xlink:href="#SimHei-29" transform="translate(350 0)"/>
     </g>
    </g>
   </g>
   <g id="matplotlib.axis_4">
    <g id="ytick_7">
     <g id="line2d_47">
      <path d="M 540.977188 302.220087 
L 993.150938 302.220087 
" clip-path="url(#p7c92eb1b79)" style="fill: none; stroke: #b0b0b0; stroke-opacity: 0.3; stroke-width: 0.8; stroke-linecap: square"/>
     </g>
     <g id="line2d_48">
      <g>
       <use xlink:href="#mfa6d082f85" x="540.977188" y="302.220087" style="stroke: #000000; stroke-width: 0.8"/>
      </g>
     </g>
     <g id="text_28">
      <!-- 1.2 -->
      <g transform="translate(518.977188 305.657587) scale(0.1 -0.1)">
       <use xlink:href="#SimHei-31"/>
       <use xlink:href="#SimHei-2e" transform="translate(50 0)"/>
       <use xlink:href="#SimHei-32" transform="translate(100 0)"/>
      </g>
     </g>
    </g>
    <g id="ytick_8">
     <g id="line2d_49">
      <path d="M 540.977188 268.994345 
L 993.150938 268.994345 
" clip-path="url(#p7c92eb1b79)" style="fill: none; stroke: #b0b0b0; stroke-opacity: 0.3; stroke-width: 0.8; stroke-linecap: square"/>
     </g>
     <g id="line2d_50">
      <g>
       <use xlink:href="#mfa6d082f85" x="540.977188" y="268.994345" style="stroke: #000000; stroke-width: 0.8"/>
      </g>
     </g>
     <g id="text_29">
      <!-- 1.3 -->
      <g transform="translate(518.977188 272.431845) scale(0.1 -0.1)">
       <use xlink:href="#SimHei-31"/>
       <use xlink:href="#SimHei-2e" transform="translate(50 0)"/>
       <use xlink:href="#SimHei-33" transform="translate(100 0)"/>
      </g>
     </g>
    </g>
    <g id="ytick_9">
     <g id="line2d_51">
      <path d="M 540.977188 235.768602 
L 993.150938 235.768602 
" clip-path="url(#p7c92eb1b79)" style="fill: none; stroke: #b0b0b0; stroke-opacity: 0.3; stroke-width: 0.8; stroke-linecap: square"/>
     </g>
     <g id="line2d_52">
      <g>
       <use xlink:href="#mfa6d082f85" x="540.977188" y="235.768602" style="stroke: #000000; stroke-width: 0.8"/>
      </g>
     </g>
     <g id="text_30">
      <!-- 1.4 -->
      <g transform="translate(518.977188 239.206102) scale(0.1 -0.1)">
       <use xlink:href="#SimHei-31"/>
       <use xlink:href="#SimHei-2e" transform="translate(50 0)"/>
       <use xlink:href="#SimHei-34" transform="translate(100 0)"/>
      </g>
     </g>
    </g>
    <g id="ytick_10">
     <g id="line2d_53">
      <path d="M 540.977188 202.54286 
L 993.150938 202.54286 
" clip-path="url(#p7c92eb1b79)" style="fill: none; stroke: #b0b0b0; stroke-opacity: 0.3; stroke-width: 0.8; stroke-linecap: square"/>
     </g>
     <g id="line2d_54">
      <g>
       <use xlink:href="#mfa6d082f85" x="540.977188" y="202.54286" style="stroke: #000000; stroke-width: 0.8"/>
      </g>
     </g>
     <g id="text_31">
      <!-- 1.5 -->
      <g transform="translate(518.977188 205.98036) scale(0.1 -0.1)">
       <use xlink:href="#SimHei-31"/>
       <use xlink:href="#SimHei-2e" transform="translate(50 0)"/>
       <use xlink:href="#SimHei-35" transform="translate(100 0)"/>
      </g>
     </g>
    </g>
    <g id="ytick_11">
     <g id="line2d_55">
      <path d="M 540.977188 169.317118 
L 993.150938 169.317118 
" clip-path="url(#p7c92eb1b79)" style="fill: none; stroke: #b0b0b0; stroke-opacity: 0.3; stroke-width: 0.8; stroke-linecap: square"/>
     </g>
     <g id="line2d_56">
      <g>
       <use xlink:href="#mfa6d082f85" x="540.977188" y="169.317118" style="stroke: #000000; stroke-width: 0.8"/>
      </g>
     </g>
     <g id="text_32">
      <!-- 1.6 -->
      <g transform="translate(518.977188 172.754618) scale(0.1 -0.1)">
       <use xlink:href="#SimHei-31"/>
       <use xlink:href="#SimHei-2e" transform="translate(50 0)"/>
       <use xlink:href="#SimHei-36" transform="translate(100 0)"/>
      </g>
     </g>
    </g>
    <g id="ytick_12">
     <g id="line2d_57">
      <path d="M 540.977188 136.091375 
L 993.150938 136.091375 
" clip-path="url(#p7c92eb1b79)" style="fill: none; stroke: #b0b0b0; stroke-opacity: 0.3; stroke-width: 0.8; stroke-linecap: square"/>
     </g>
     <g id="line2d_58">
      <g>
       <use xlink:href="#mfa6d082f85" x="540.977188" y="136.091375" style="stroke: #000000; stroke-width: 0.8"/>
      </g>
     </g>
     <g id="text_33">
      <!-- 1.7 -->
      <g transform="translate(518.977188 139.528875) scale(0.1 -0.1)">
       <use xlink:href="#SimHei-31"/>
       <use xlink:href="#SimHei-2e" transform="translate(50 0)"/>
       <use xlink:href="#SimHei-37" transform="translate(100 0)"/>
      </g>
     </g>
    </g>
    <g id="ytick_13">
     <g id="line2d_59">
      <path d="M 540.977188 102.865633 
L 993.150938 102.865633 
" clip-path="url(#p7c92eb1b79)" style="fill: none; stroke: #b0b0b0; stroke-opacity: 0.3; stroke-width: 0.8; stroke-linecap: square"/>
     </g>
     <g id="line2d_60">
      <g>
       <use xlink:href="#mfa6d082f85" x="540.977188" y="102.865633" style="stroke: #000000; stroke-width: 0.8"/>
      </g>
     </g>
     <g id="text_34">
      <!-- 1.8 -->
      <g transform="translate(518.977188 106.303133) scale(0.1 -0.1)">
       <defs>
        <path id="SimHei-38" d="M 175 1375 
Q 175 1675 325 1962 
Q 475 2250 825 2425 
Q 525 2600 425 2812 
Q 325 3025 312 3300 
Q 300 3575 387 3775 
Q 475 3975 650 4150 
Q 825 4325 1037 4387 
Q 1250 4450 1500 4450 
Q 1750 4450 1950 4400 
Q 2150 4350 2375 4187 
Q 2600 4025 2700 3725 
Q 2800 3425 2687 3025 
Q 2575 2625 2100 2400 
Q 2525 2275 2700 2012 
Q 2875 1750 2875 1375 
Q 2875 1000 2762 775 
Q 2650 550 2512 400 
Q 2375 250 2137 162 
Q 1900 75 1537 75 
Q 1175 75 912 162 
Q 650 250 475 425 
Q 300 600 237 837 
Q 175 1075 175 1375 
z
M 687 1400 
Q 675 1100 787 875 
Q 900 650 1200 587 
Q 1500 525 1825 600 
Q 2150 675 2275 950 
Q 2400 1225 2362 1500 
Q 2325 1775 2050 1962 
Q 1775 2150 1450 2125 
Q 1125 2100 912 1900 
Q 700 1700 687 1400 
z
M 775 3350 
Q 775 3100 950 2875 
Q 1125 2650 1500 2650 
Q 1875 2650 2062 2875 
Q 2250 3100 2237 3412 
Q 2225 3725 2012 3875 
Q 1800 4025 1437 4000 
Q 1075 3975 925 3787 
Q 775 3600 775 3350 
z
" transform="scale(0.015625)"/>
       </defs>
       <use xlink:href="#SimHei-31"/>
       <use xlink:href="#SimHei-2e" transform="translate(50 0)"/>
       <use xlink:href="#SimHei-38" transform="translate(100 0)"/>
      </g>
     </g>
    </g>
    <g id="ytick_14">
     <g id="line2d_61">
      <path d="M 540.977188 69.63989 
L 993.150938 69.63989 
" clip-path="url(#p7c92eb1b79)" style="fill: none; stroke: #b0b0b0; stroke-opacity: 0.3; stroke-width: 0.8; stroke-linecap: square"/>
     </g>
     <g id="line2d_62">
      <g>
       <use xlink:href="#mfa6d082f85" x="540.977188" y="69.63989" style="stroke: #000000; stroke-width: 0.8"/>
      </g>
     </g>
     <g id="text_35">
      <!-- 1.9 -->
      <g transform="translate(518.977188 73.07739) scale(0.1 -0.1)">
       <defs>
        <path id="SimHei-39" d="M 800 75 
Q 1350 1000 1700 1750 
Q 1075 1650 662 1912 
Q 250 2175 162 2625 
Q 75 3075 175 3437 
Q 275 3800 487 4037 
Q 700 4275 1000 4375 
Q 1300 4475 1537 4475 
Q 1775 4475 2025 4375 
Q 2275 4275 2475 4075 
Q 2675 3875 2750 3662 
Q 2825 3450 2825 3112 
Q 2825 2775 2575 2250 
Q 2325 1725 1350 75 
L 800 75 
z
M 662 2875 
Q 700 2550 937 2337 
Q 1175 2125 1450 2150 
Q 1725 2175 1887 2300 
Q 2050 2425 2200 2725 
Q 2300 3100 2250 3362 
Q 2200 3625 1987 3800 
Q 1775 3975 1525 3975 
Q 1375 4000 1137 3900 
Q 900 3800 762 3500 
Q 625 3200 662 2875 
z
" transform="scale(0.015625)"/>
       </defs>
       <use xlink:href="#SimHei-31"/>
       <use xlink:href="#SimHei-2e" transform="translate(50 0)"/>
       <use xlink:href="#SimHei-39" transform="translate(100 0)"/>
      </g>
     </g>
    </g>
    <g id="ytick_15">
     <g id="line2d_63">
      <path d="M 540.977188 36.414148 
L 993.150938 36.414148 
" clip-path="url(#p7c92eb1b79)" style="fill: none; stroke: #b0b0b0; stroke-opacity: 0.3; stroke-width: 0.8; stroke-linecap: square"/>
     </g>
     <g id="line2d_64">
      <g>
       <use xlink:href="#mfa6d082f85" x="540.977188" y="36.414148" style="stroke: #000000; stroke-width: 0.8"/>
      </g>
     </g>
     <g id="text_36">
      <!-- 2.0 -->
      <g transform="translate(518.977188 39.851648) scale(0.1 -0.1)">
       <use xlink:href="#SimHei-32"/>
       <use xlink:href="#SimHei-2e" transform="translate(50 0)"/>
       <use xlink:href="#SimHei-30" transform="translate(100 0)"/>
      </g>
     </g>
    </g>
    <g id="text_37">
     <!-- 半径 (cm) -->
     <g transform="translate(513.727188 192.149375) rotate(-90) scale(0.1 -0.1)">
      <defs>
       <path id="SimHei-534a" d="M 2900 2925 
L 2900 4500 
Q 2900 4800 2875 5100 
L 3450 5100 
Q 3425 4850 3425 4400 
L 3425 2925 
L 4625 2925 
Q 5125 2925 5625 2950 
L 5625 2475 
Q 5125 2500 4525 2500 
L 3425 2500 
L 3425 1575 
L 5025 1575 
Q 5575 1575 6050 1600 
L 6050 1125 
Q 5575 1150 5050 1150 
L 3425 1150 
L 3425 200 
Q 3425 -125 3450 -575 
L 2850 -575 
Q 2900 -100 2900 200 
L 2900 1150 
L 1300 1150 
Q 775 1150 250 1125 
L 250 1600 
Q 775 1575 1575 1575 
L 2900 1575 
L 2900 2500 
L 1775 2500 
Q 1250 2500 675 2475 
L 675 2950 
Q 1225 2925 1650 2925 
L 2900 2925 
z
M 1300 4825 
Q 1825 4200 2225 3675 
Q 2025 3550 1725 3325 
Q 1350 3925 825 4475 
Q 1075 4600 1300 4825 
z
M 4125 3575 
Q 4575 4100 4925 4800 
Q 5175 4600 5475 4475 
Q 5400 4400 5100 3975 
Q 4800 3550 4600 3275 
Q 4400 3450 4125 3575 
z
" transform="scale(0.015625)"/>
       <path id="SimHei-5f84" d="M 4700 1875 
Q 5325 1875 5675 1900 
L 5675 1425 
Q 5350 1450 4725 1450 
L 4350 1450 
L 4350 100 
L 5375 100 
L 6075 150 
L 6075 -350 
Q 5725 -325 5375 -325 
L 2900 -325 
Q 2450 -325 2075 -350 
L 2075 125 
Q 2450 100 2900 100 
L 3875 100 
L 3875 1450 
L 3550 1450 
Q 3100 1450 2575 1425 
L 2575 1900 
Q 3100 1875 3550 1875 
L 4700 1875 
z
M 5625 4700 
Q 5400 4325 5162 4037 
Q 4925 3750 4625 3425 
Q 5475 2950 6050 2550 
Q 5825 2350 5675 2175 
Q 4825 2850 4300 3150 
Q 3900 2850 3550 2650 
Q 3200 2450 2525 2100 
Q 2450 2275 2175 2525 
Q 2775 2700 3537 3162 
Q 4300 3625 4775 4300 
L 3475 4300 
Q 3025 4300 2625 4275 
L 2625 4725 
Q 3000 4700 3450 4700 
L 5625 4700 
z
M 2550 3600 
Q 2300 3375 1725 2625 
L 1725 575 
Q 1725 50 1750 -600 
L 1250 -600 
Q 1275 50 1275 600 
L 1275 2150 
Q 925 1825 600 1550 
Q 450 1725 275 1900 
Q 850 2275 1337 2837 
Q 1825 3400 2100 3950 
Q 2300 3775 2550 3600 
z
M 2275 4850 
Q 2100 4650 1637 4150 
Q 1175 3650 750 3275 
Q 600 3450 375 3625 
Q 825 3925 1212 4337 
Q 1600 4750 1850 5175 
Q 2050 5000 2275 4850 
z
" transform="scale(0.015625)"/>
       <path id="SimHei-63" d="M 2850 1250 
Q 2850 725 2487 400 
Q 2125 75 1575 75 
Q 1025 75 625 462 
Q 225 850 225 1525 
Q 225 2200 625 2587 
Q 1025 2975 1575 2975 
Q 2125 2975 2450 2687 
Q 2775 2400 2775 2000 
L 2225 2000 
Q 2200 2300 2012 2412 
Q 1825 2525 1575 2525 
Q 1275 2525 1025 2287 
Q 775 2050 775 1525 
Q 775 1000 1025 762 
Q 1275 525 1575 525 
Q 1900 525 2100 700 
Q 2300 875 2300 1250 
L 2850 1250 
z
" transform="scale(0.015625)"/>
       <path id="SimHei-6d" d="M 3050 125 
L 2550 125 
L 2550 2150 
Q 2550 2300 2500 2400 
Q 2450 2500 2300 2500 
Q 2125 2500 1975 2312 
Q 1825 2125 1825 1825 
L 1825 125 
L 1325 125 
L 1325 2150 
Q 1325 2300 1275 2400 
Q 1225 2500 1075 2500 
Q 900 2500 750 2312 
Q 600 2125 600 1825 
L 600 125 
L 100 125 
L 100 2925 
L 600 2925 
L 600 2550 
Q 725 2750 900 2862 
Q 1075 2975 1275 2975 
Q 1475 2975 1612 2862 
Q 1750 2750 1800 2550 
Q 1925 2750 2087 2862 
Q 2250 2975 2450 2975 
Q 2750 2975 2900 2812 
Q 3050 2650 3050 2350 
L 3050 125 
z
" transform="scale(0.015625)"/>
      </defs>
      <use xlink:href="#SimHei-534a"/>
      <use xlink:href="#SimHei-5f84" transform="translate(100 0)"/>
      <use xlink:href="#SimHei-20" transform="translate(200 0)"/>
      <use xlink:href="#SimHei-28" transform="translate(250 0)"/>
      <use xlink:href="#SimHei-63" transform="translate(300 0)"/>
      <use xlink:href="#SimHei-6d" transform="translate(350 0)"/>
      <use xlink:href="#SimHei-29" transform="translate(400 0)"/>
     </g>
    </g>
   </g>
   <g id="line2d_65">
    <path d="M 561.53054 36.414148 
L 564.385172 78.610841 
L 567.239804 104.859177 
L 570.094437 135.094603 
L 572.949069 161.010682 
L 578.658333 185.265474 
L 581.512966 199.220286 
L 584.367598 210.184781 
L 587.22223 220.152504 
L 590.076862 227.794424 
L 592.931495 236.765375 
L 595.786127 244.407296 
L 598.640759 250.387929 
L 601.495391 256.70082 
L 604.350024 262.016939 
L 607.204656 265.339513 
L 610.059288 269.326602 
L 612.91392 271.984662 
L 615.768553 275.307236 
L 618.623185 277.965295 
L 621.477817 280.291097 
L 624.332449 282.284642 
L 627.187082 284.610444 
L 630.041714 286.271731 
L 638.605611 290.25882 
L 641.460243 291.255592 
L 644.314875 292.584622 
L 650.02414 294.578167 
L 655.733404 295.907196 
L 658.588037 296.239454 
L 664.297301 297.568483 
L 687.134359 300.226543 
L 689.988991 300.226543 
L 692.843624 300.5588 
L 695.698256 300.5588 
L 698.552888 300.891058 
L 701.407521 300.891058 
L 704.262153 301.223315 
L 712.82605 301.223315 
L 715.680682 301.555573 
L 727.099211 301.555573 
L 729.953843 301.88783 
L 758.500166 301.88783 
L 761.354798 302.220087 
L 889.81325 302.220087 
L 892.667882 302.552345 
L 941.19663 302.552345 
L 944.051263 302.884602 
L 972.597585 302.884602 
L 972.597585 302.884602 
" clip-path="url(#p7c92eb1b79)" style="fill: none; stroke: #0000ff; stroke-width: 2; stroke-linecap: square"/>
   </g>
   <g id="patch_9">
    <path d="M 540.977188 316.208125 
L 540.977188 23.090625 
" style="fill: none; stroke: #000000; stroke-width: 0.8; stroke-linejoin: miter; stroke-linecap: square"/>
   </g>
   <g id="patch_10">
    <path d="M 993.150938 316.208125 
L 993.150938 23.090625 
" style="fill: none; stroke: #000000; stroke-width: 0.8; stroke-linejoin: miter; stroke-linecap: square"/>
   </g>
   <g id="patch_11">
    <path d="M 540.977188 316.208125 
L 993.150938 316.208125 
" style="fill: none; stroke: #000000; stroke-width: 0.8; stroke-linejoin: miter; stroke-linecap: square"/>
   </g>
   <g id="patch_12">
    <path d="M 540.977188 23.090625 
L 993.150938 23.090625 
" style="fill: none; stroke: #000000; stroke-width: 0.8; stroke-linejoin: miter; stroke-linecap: square"/>
   </g>
   <g id="text_38">
    <!-- 附件2：药材半径变化 -->
    <g transform="translate(710.064063 17.090625) scale(0.12 -0.12)">
     <defs>
      <path id="SimHei-9644" d="M 625 3725 
Q 625 4250 600 4775 
L 2525 4775 
Q 2225 3925 1900 2850 
Q 2350 2225 2450 1875 
Q 2550 1525 2462 1250 
Q 2375 975 2150 850 
Q 1925 725 1500 650 
Q 1450 975 1350 1200 
Q 1825 1200 1925 1312 
Q 2025 1425 2012 1637 
Q 2000 1850 1837 2150 
Q 1675 2450 1375 2750 
Q 1675 3525 1900 4375 
L 1100 4375 
L 1100 -550 
L 600 -550 
Q 625 250 625 700 
L 625 3725 
z
M 3900 3775 
Q 4275 3750 4625 3750 
L 5150 3750 
L 5150 4325 
Q 5150 4575 5125 5125 
L 5650 5125 
Q 5625 4575 5625 4325 
L 5625 3750 
Q 5900 3750 6175 3775 
L 6175 3350 
Q 5900 3375 5625 3375 
L 5625 300 
Q 5600 -150 5375 -262 
Q 5150 -375 4600 -450 
Q 4550 -125 4425 100 
Q 4825 100 4987 137 
Q 5150 175 5150 475 
L 5150 3350 
L 4625 3350 
Q 4325 3350 3900 3325 
L 3900 3775 
z
M 3100 2950 
Q 2825 2475 2675 2225 
Q 2475 2425 2275 2525 
Q 2575 2875 2900 3562 
Q 3225 4250 3425 5150 
Q 3700 5050 4025 4950 
Q 3925 4800 3862 4650 
Q 3800 4500 3575 3900 
L 3575 550 
Q 3575 0 3600 -475 
L 3075 -475 
Q 3100 300 3100 550 
L 3100 2950 
z
M 4275 1525 
Q 4150 2050 3975 2575 
Q 4300 2650 4475 2675 
Q 4625 2175 4725 1625 
Q 4575 1600 4275 1525 
z
" transform="scale(0.015625)"/>
      <path id="SimHei-4ef6" d="M 3275 4475 
Q 3150 4375 2925 3775 
L 3900 3775 
L 3900 4275 
Q 3900 4900 3875 5125 
L 4400 5125 
Q 4375 4925 4375 4300 
L 4375 3775 
L 5125 3775 
Q 5450 3775 5725 3800 
L 5725 3325 
Q 5450 3350 5125 3350 
L 4375 3350 
L 4375 2000 
L 5200 2000 
Q 5575 2000 6100 2025 
L 6100 1550 
Q 5675 1575 5175 1575 
L 4375 1575 
L 4375 275 
Q 4375 -100 4400 -550 
L 3875 -550 
Q 3900 -100 3900 275 
L 3900 1575 
L 2925 1575 
Q 2500 1575 1925 1550 
L 1925 2025 
Q 2475 2000 2825 2000 
L 3900 2000 
L 3900 3350 
L 2775 3350 
Q 2700 3150 2350 2425 
Q 2275 2500 1900 2650 
Q 2150 3025 2350 3500 
Q 2550 3975 2700 4700 
Q 2900 4575 3275 4475 
z
M 1150 3200 
Q 900 2825 550 2375 
Q 425 2625 200 2750 
Q 650 3200 1025 3850 
Q 1400 4500 1650 5250 
Q 1950 5050 2175 4975 
Q 2000 4825 1625 4025 
L 1625 625 
Q 1625 -175 1650 -575 
L 1125 -575 
Q 1150 -225 1150 600 
L 1150 3200 
z
" transform="scale(0.015625)"/>
      <path id="SimHei-53d8" d="M 5200 1975 
Q 4950 1600 4537 1137 
Q 4125 675 3675 375 
Q 3925 225 4600 87 
Q 5275 -50 6000 -75 
Q 5700 -400 5650 -625 
Q 4850 -525 4212 -312 
Q 3575 -100 3225 125 
Q 2800 -125 2150 -325 
Q 1500 -525 700 -675 
Q 600 -425 400 -175 
Q 950 -150 1687 12 
Q 2425 175 2825 375 
Q 2275 775 1675 1575 
Q 1350 1575 1000 1550 
L 1000 2000 
Q 1450 1975 2075 1975 
L 5200 1975 
z
M 3225 5275 
Q 3400 4900 3550 4475 
L 4675 4475 
Q 5400 4475 5975 4500 
L 5975 4025 
Q 5375 4050 4725 4050 
L 4125 4050 
L 4125 2950 
Q 4125 2550 4150 2150 
L 3600 2150 
Q 3625 2550 3625 2950 
L 3625 4050 
L 2750 4050 
L 2750 2950 
Q 2750 2675 2775 2150 
L 2225 2150 
Q 2250 2675 2250 2950 
L 2250 4050 
L 1700 4050 
Q 975 4050 425 4025 
L 425 4500 
Q 950 4475 1700 4475 
L 2975 4475 
Q 2925 4675 2700 5125 
Q 2950 5150 3225 5275 
z
M 2200 1575 
Q 2650 975 3250 600 
Q 3850 1000 4275 1575 
L 2200 1575 
z
M 4850 3750 
Q 5375 3275 5950 2675 
Q 5750 2525 5500 2300 
Q 5075 2800 4450 3400 
Q 4675 3575 4850 3750 
z
M 1825 3500 
Q 1700 3375 1425 3025 
Q 1150 2675 825 2300 
Q 575 2475 375 2600 
Q 975 3150 1300 3825 
Q 1525 3650 1825 3500 
z
" transform="scale(0.015625)"/>
      <path id="SimHei-5316" d="M 3925 5025 
Q 3900 4900 3900 4400 
L 3900 2625 
Q 4375 3025 4775 3450 
Q 5175 3875 5400 4300 
Q 5600 4100 5900 3925 
Q 5700 3700 5225 3212 
Q 4750 2725 4487 2512 
Q 4225 2300 3900 2025 
L 3900 450 
Q 3900 50 4225 50 
L 5200 50 
Q 5400 75 5462 262 
Q 5525 450 5575 850 
Q 5800 650 6150 600 
Q 6000 -100 5825 -250 
Q 5650 -400 5350 -400 
L 3950 -400 
Q 3425 -400 3400 200 
L 3400 1675 
Q 3225 1525 2962 1350 
Q 2700 1175 2375 975 
Q 2225 1225 2025 1400 
Q 2350 1550 2737 1787 
Q 3125 2025 3400 2250 
L 3400 4500 
Q 3400 4800 3375 5025 
L 3925 5025 
z
M 2400 4850 
Q 2175 4550 2075 4337 
Q 1975 4125 1825 3775 
L 1825 675 
Q 1825 -75 1850 -550 
L 1325 -550 
Q 1350 -125 1350 650 
L 1350 3050 
Q 1125 2725 962 2525 
Q 800 2325 675 2175 
Q 500 2375 275 2525 
Q 625 2850 875 3212 
Q 1125 3575 1312 3912 
Q 1500 4250 1625 4575 
Q 1750 4900 1825 5100 
Q 1975 4975 2400 4850 
z
" transform="scale(0.015625)"/>
     </defs>
     <use xlink:href="#SimHei-9644"/>
     <use xlink:href="#SimHei-4ef6" transform="translate(100 0)"/>
     <use xlink:href="#SimHei-32" transform="translate(200 0)"/>
     <use xlink:href="#SimHei-ff1a" transform="translate(250 0)"/>
     <use xlink:href="#SimHei-836f" transform="translate(350 0)"/>
     <use xlink:href="#SimHei-6750" transform="translate(450 0)"/>
     <use xlink:href="#SimHei-534a" transform="translate(550 0)"/>
     <use xlink:href="#SimHei-5f84" transform="translate(650 0)"/>
     <use xlink:href="#SimHei-53d8" transform="translate(750 0)"/>
     <use xlink:href="#SimHei-5316" transform="translate(850 0)"/>
    </g>
   </g>
  </g>
 </g>
 <defs>
  <clipPath id="pbd9baa469c">
   <rect x="42.692188" y="23.090625" width="452.17375" height="293.1175"/>
  </clipPath>
  <clipPath id="p7c92eb1b79">
   <rect x="540.977188" y="23.090625" width="452.17375" height="293.1175"/>
  </clipPath>
 </defs>
</svg>
